<mxfile host="app.diagrams.net" modified="2023-07-13T15:51:43.585Z" agent="Mozilla/5.0 (Windows NT 10.0; Win64; x64) AppleWebKit/537.36 (KHTML, like Gecko) Chrome/114.0.0.0 Safari/537.36" etag="tfN65fbKljmc66Vp9hc6" version="21.5.2" type="device">
  <diagram name="Seite-1" id="DOqug1IvYXYTALWtubwl">
    <mxGraphModel dx="1434" dy="1615" grid="1" gridSize="10" guides="1" tooltips="1" connect="1" arrows="1" fold="1" page="1" pageScale="1" pageWidth="1169" pageHeight="827" math="0" shadow="0">
      <root>
        <mxCell id="0" />
        <mxCell id="1" parent="0" />
        <mxCell id="FLR42j-FrsLAVWcKelxg-1" value="" style="rounded=1;whiteSpace=wrap;html=1;fillColor=#FFB570;strokeColor=#000000;strokeWidth=2;" parent="1" vertex="1">
          <mxGeometry x="80" y="300" width="170" height="150" as="geometry" />
        </mxCell>
        <mxCell id="FLR42j-FrsLAVWcKelxg-2" value="&lt;font style=&quot;font-size: 24px;&quot;&gt;Moodel&lt;/font&gt;" style="text;html=1;strokeColor=none;fillColor=none;align=center;verticalAlign=middle;whiteSpace=wrap;rounded=0;" parent="1" vertex="1">
          <mxGeometry x="135" y="320" width="60" height="30" as="geometry" />
        </mxCell>
        <mxCell id="FLR42j-FrsLAVWcKelxg-5" value="&lt;font style=&quot;font-size: 18px;&quot;&gt;Plugin&lt;/font&gt;" style="rounded=1;whiteSpace=wrap;html=1;strokeWidth=2;fillColor=#fff2cc;strokeColor=#d6b656;" parent="1" vertex="1">
          <mxGeometry x="117.5" y="374" width="95" height="40" as="geometry" />
        </mxCell>
        <mxCell id="FLR42j-FrsLAVWcKelxg-6" value="&lt;font style=&quot;font-size: 24px;&quot;&gt;IssuerAgent&lt;/font&gt;" style="rounded=1;whiteSpace=wrap;html=1;fillColor=#A9C4EB;strokeColor=#000000;strokeWidth=2;" parent="1" vertex="1">
          <mxGeometry x="395" y="200" width="185" height="70" as="geometry" />
        </mxCell>
        <mxCell id="FLR42j-FrsLAVWcKelxg-9" value="" style="endArrow=classic;html=1;rounded=0;exitX=1;exitY=0.5;exitDx=0;exitDy=0;entryX=0;entryY=0.5;entryDx=0;entryDy=0;strokeWidth=2;" parent="1" source="FLR42j-FrsLAVWcKelxg-5" target="FLR42j-FrsLAVWcKelxg-6" edge="1">
          <mxGeometry width="50" height="50" relative="1" as="geometry">
            <mxPoint x="225" y="400" as="sourcePoint" />
            <mxPoint x="525" y="205" as="targetPoint" />
          </mxGeometry>
        </mxCell>
        <mxCell id="FLR42j-FrsLAVWcKelxg-15" value="" style="html=1;verticalLabelPosition=bottom;align=center;labelBackgroundColor=#ffffff;verticalAlign=top;strokeWidth=2;strokeColor=#000000;shadow=0;dashed=0;shape=mxgraph.ios7.icons.document;fillColor=#CCCCCC;" parent="1" vertex="1">
          <mxGeometry x="320" y="420" width="100" height="90" as="geometry" />
        </mxCell>
        <mxCell id="FLR42j-FrsLAVWcKelxg-16" value="&lt;b&gt;&lt;font style=&quot;font-size: 18px;&quot;&gt;JSON VC&lt;/font&gt;&lt;/b&gt;" style="text;html=1;strokeColor=none;fillColor=none;align=center;verticalAlign=middle;whiteSpace=wrap;rounded=0;" parent="1" vertex="1">
          <mxGeometry x="340" y="450" width="60" height="30" as="geometry" />
        </mxCell>
        <mxCell id="FLR42j-FrsLAVWcKelxg-17" value="" style="endArrow=none;dashed=1;html=1;dashPattern=1 3;strokeWidth=2;rounded=0;exitX=0.457;exitY=-0.057;exitDx=0;exitDy=0;exitPerimeter=0;entryX=0.565;entryY=1.243;entryDx=0;entryDy=0;entryPerimeter=0;" parent="1" source="FLR42j-FrsLAVWcKelxg-15" edge="1">
          <mxGeometry width="50" height="50" relative="1" as="geometry">
            <mxPoint x="375.31" y="424" as="sourcePoint" />
            <mxPoint x="319.9996454262062" y="306.7647963597667" as="targetPoint" />
          </mxGeometry>
        </mxCell>
        <mxCell id="FLR42j-FrsLAVWcKelxg-23" value="&lt;font style=&quot;font-size: 18px;&quot;&gt;Transfers&lt;br&gt;&lt;/font&gt;" style="text;html=1;strokeColor=none;fillColor=none;align=center;verticalAlign=middle;whiteSpace=wrap;rounded=0;rotation=-40;" parent="1" vertex="1">
          <mxGeometry x="240" y="289" width="120" height="25" as="geometry" />
        </mxCell>
        <mxCell id="csfzGqKFnjeh-MCSGnIr-1" value="&lt;font style=&quot;font-size: 24px;&quot;&gt;Verifiable Data Registry&lt;/font&gt;" style="rounded=1;whiteSpace=wrap;html=1;fillColor=#f8cecc;strokeColor=#b85450;strokeWidth=2;" parent="1" vertex="1">
          <mxGeometry x="80" y="560" width="1120" height="60" as="geometry" />
        </mxCell>
        <mxCell id="csfzGqKFnjeh-MCSGnIr-2" value="&lt;font style=&quot;font-size: 24px;&quot;&gt;Holder&lt;/font&gt;" style="shape=umlActor;verticalLabelPosition=bottom;verticalAlign=top;html=1;outlineConnect=0;strokeWidth=3;" parent="1" vertex="1">
          <mxGeometry x="770" y="120" width="30" height="60" as="geometry" />
        </mxCell>
        <mxCell id="csfzGqKFnjeh-MCSGnIr-3" value="" style="endArrow=classic;html=1;rounded=0;exitX=0.5;exitY=1;exitDx=0;exitDy=0;strokeWidth=2;entryX=0.363;entryY=-0.033;entryDx=0;entryDy=0;entryPerimeter=0;" parent="1" source="FLR42j-FrsLAVWcKelxg-6" edge="1" target="csfzGqKFnjeh-MCSGnIr-1">
          <mxGeometry width="50" height="50" relative="1" as="geometry">
            <mxPoint x="560" y="330" as="sourcePoint" />
            <mxPoint x="490" y="560" as="targetPoint" />
          </mxGeometry>
        </mxCell>
        <mxCell id="csfzGqKFnjeh-MCSGnIr-4" value="&lt;font style=&quot;font-size: 18px;&quot;&gt;Stores via Hyperledger Aries&lt;/font&gt;" style="text;html=1;strokeColor=none;fillColor=none;align=center;verticalAlign=middle;whiteSpace=wrap;rounded=0;rotation=0;" parent="1" vertex="1">
          <mxGeometry x="480" y="370" width="120" height="30" as="geometry" />
        </mxCell>
        <mxCell id="csfzGqKFnjeh-MCSGnIr-7" value="" style="html=1;verticalLabelPosition=bottom;align=center;labelBackgroundColor=#ffffff;verticalAlign=top;strokeWidth=2;strokeColor=#000000;shadow=0;dashed=0;shape=mxgraph.ios7.icons.document;fillColor=#CCCCCC;" parent="1" vertex="1">
          <mxGeometry x="570" y="443" width="100" height="90" as="geometry" />
        </mxCell>
        <mxCell id="csfzGqKFnjeh-MCSGnIr-8" value="&lt;b&gt;&lt;font style=&quot;font-size: 18px;&quot;&gt;DID Doc&lt;br&gt;&lt;/font&gt;&lt;/b&gt;" style="text;html=1;strokeColor=none;fillColor=none;align=center;verticalAlign=middle;whiteSpace=wrap;rounded=0;" parent="1" vertex="1">
          <mxGeometry x="580" y="468" width="60" height="30" as="geometry" />
        </mxCell>
        <mxCell id="csfzGqKFnjeh-MCSGnIr-9" value="" style="endArrow=none;dashed=1;html=1;dashPattern=1 3;strokeWidth=2;rounded=0;entryX=-0.02;entryY=0.5;entryDx=0;entryDy=0;entryPerimeter=0;" parent="1" target="csfzGqKFnjeh-MCSGnIr-7" edge="1">
          <mxGeometry width="50" height="50" relative="1" as="geometry">
            <mxPoint x="490" y="460" as="sourcePoint" />
            <mxPoint x="610" y="360" as="targetPoint" />
          </mxGeometry>
        </mxCell>
        <mxCell id="csfzGqKFnjeh-MCSGnIr-10" value="" style="endArrow=classic;html=1;rounded=0;strokeWidth=2;entryX=0;entryY=0.5;entryDx=0;entryDy=0;" parent="1" source="FLR42j-FrsLAVWcKelxg-6" target="csfzGqKFnjeh-MCSGnIr-28" edge="1">
          <mxGeometry width="50" height="50" relative="1" as="geometry">
            <mxPoint x="588" y="241" as="sourcePoint" />
            <mxPoint x="760" y="243" as="targetPoint" />
          </mxGeometry>
        </mxCell>
        <mxCell id="csfzGqKFnjeh-MCSGnIr-12" value="&lt;font style=&quot;font-size: 24px;&quot;&gt;VerifierAgent&lt;/font&gt;" style="rounded=1;whiteSpace=wrap;html=1;fillColor=#A9C4EB;strokeColor=#000000;strokeWidth=2;" parent="1" vertex="1">
          <mxGeometry x="1030" y="380" width="170" height="59" as="geometry" />
        </mxCell>
        <mxCell id="csfzGqKFnjeh-MCSGnIr-13" value="" style="endArrow=classic;html=1;rounded=0;strokeWidth=2;entryX=0;entryY=0.5;entryDx=0;entryDy=0;exitX=1;exitY=0.5;exitDx=0;exitDy=0;" parent="1" source="csfzGqKFnjeh-MCSGnIr-28" target="csfzGqKFnjeh-MCSGnIr-38" edge="1">
          <mxGeometry width="50" height="50" relative="1" as="geometry">
            <mxPoint x="810" y="240" as="sourcePoint" />
            <mxPoint x="990" y="194.5" as="targetPoint" />
          </mxGeometry>
        </mxCell>
        <mxCell id="csfzGqKFnjeh-MCSGnIr-15" value="" style="html=1;verticalLabelPosition=bottom;align=center;labelBackgroundColor=#ffffff;verticalAlign=top;strokeWidth=2;strokeColor=#000000;shadow=0;dashed=0;shape=mxgraph.ios7.icons.document;fillColor=#CCCCCC;" parent="1" vertex="1">
          <mxGeometry x="600" y="20" width="100" height="90" as="geometry" />
        </mxCell>
        <mxCell id="csfzGqKFnjeh-MCSGnIr-16" value="&lt;b&gt;&lt;font style=&quot;font-size: 18px;&quot;&gt;JSON VC&lt;/font&gt;&lt;/b&gt;" style="text;html=1;strokeColor=none;fillColor=none;align=center;verticalAlign=middle;whiteSpace=wrap;rounded=0;" parent="1" vertex="1">
          <mxGeometry x="620" y="50" width="60" height="30" as="geometry" />
        </mxCell>
        <mxCell id="csfzGqKFnjeh-MCSGnIr-17" value="" style="endArrow=none;dashed=1;html=1;dashPattern=1 3;strokeWidth=2;rounded=0;entryX=0.43;entryY=1.022;entryDx=0;entryDy=0;entryPerimeter=0;" parent="1" target="csfzGqKFnjeh-MCSGnIr-15" edge="1">
          <mxGeometry width="50" height="50" relative="1" as="geometry">
            <mxPoint x="610" y="230" as="sourcePoint" />
            <mxPoint x="659.9996454262061" y="140.00479635976671" as="targetPoint" />
          </mxGeometry>
        </mxCell>
        <mxCell id="csfzGqKFnjeh-MCSGnIr-18" value="&lt;font style=&quot;font-size: 18px;&quot;&gt;Issues&lt;/font&gt;" style="text;html=1;strokeColor=none;fillColor=none;align=center;verticalAlign=middle;whiteSpace=wrap;rounded=0;" parent="1" vertex="1">
          <mxGeometry x="620" y="207.5" width="70" height="30" as="geometry" />
        </mxCell>
        <mxCell id="csfzGqKFnjeh-MCSGnIr-20" value="" style="html=1;verticalLabelPosition=bottom;align=center;labelBackgroundColor=#ffffff;verticalAlign=top;strokeWidth=2;strokeColor=#000000;shadow=0;dashed=0;shape=mxgraph.ios7.icons.document;fillColor=#CCCCCC;" parent="1" vertex="1">
          <mxGeometry x="850" y="20" width="100" height="90" as="geometry" />
        </mxCell>
        <mxCell id="csfzGqKFnjeh-MCSGnIr-21" value="&lt;b&gt;&lt;font style=&quot;font-size: 18px;&quot;&gt;VC&lt;br&gt;Presen-tation&lt;br&gt;&lt;/font&gt;&lt;/b&gt;" style="text;html=1;strokeColor=none;fillColor=none;align=center;verticalAlign=middle;whiteSpace=wrap;rounded=0;" parent="1" vertex="1">
          <mxGeometry x="870" y="50" width="60" height="30" as="geometry" />
        </mxCell>
        <mxCell id="csfzGqKFnjeh-MCSGnIr-22" value="" style="endArrow=none;dashed=1;html=1;dashPattern=1 3;strokeWidth=2;rounded=0;entryX=0.41;entryY=1.033;entryDx=0;entryDy=0;entryPerimeter=0;" parent="1" target="csfzGqKFnjeh-MCSGnIr-20" edge="1">
          <mxGeometry width="50" height="50" relative="1" as="geometry">
            <mxPoint x="880" y="230" as="sourcePoint" />
            <mxPoint x="939.9996454262061" y="92.50479635976671" as="targetPoint" />
          </mxGeometry>
        </mxCell>
        <mxCell id="csfzGqKFnjeh-MCSGnIr-28" value="&lt;font style=&quot;font-size: 24px;&quot;&gt;Wallet&lt;/font&gt;" style="rounded=1;whiteSpace=wrap;html=1;fillColor=#d5e8d4;strokeColor=#82b366;strokeWidth=2;" parent="1" vertex="1">
          <mxGeometry x="730" y="213.75" width="110" height="42.5" as="geometry" />
        </mxCell>
        <mxCell id="csfzGqKFnjeh-MCSGnIr-30" value="&lt;font style=&quot;font-size: 24px;&quot;&gt;Issuer&lt;/font&gt;" style="shape=umlActor;verticalLabelPosition=bottom;verticalAlign=top;html=1;outlineConnect=0;strokeWidth=3;" parent="1" vertex="1">
          <mxGeometry x="150" y="-10" width="30" height="60" as="geometry" />
        </mxCell>
        <mxCell id="csfzGqKFnjeh-MCSGnIr-33" value="&lt;font style=&quot;font-size: 24px;&quot;&gt;Teacher&lt;/font&gt;" style="rounded=1;whiteSpace=wrap;html=1;strokeWidth=2;fillColor=#d5e8d4;strokeColor=#82b366;" parent="1" vertex="1">
          <mxGeometry x="115" y="90" width="100" height="50" as="geometry" />
        </mxCell>
        <mxCell id="csfzGqKFnjeh-MCSGnIr-35" value="" style="endArrow=classic;html=1;rounded=0;exitX=0.5;exitY=1;exitDx=0;exitDy=0;entryX=0.5;entryY=0;entryDx=0;entryDy=0;strokeWidth=2;" parent="1" source="csfzGqKFnjeh-MCSGnIr-33" target="FLR42j-FrsLAVWcKelxg-1" edge="1">
          <mxGeometry width="50" height="50" relative="1" as="geometry">
            <mxPoint x="250" y="180" as="sourcePoint" />
            <mxPoint x="300" y="130" as="targetPoint" />
          </mxGeometry>
        </mxCell>
        <mxCell id="csfzGqKFnjeh-MCSGnIr-37" value="&lt;font style=&quot;font-size: 18px;&quot;&gt;Sets Credential Schema&lt;/font&gt;" style="text;html=1;strokeColor=none;fillColor=none;align=center;verticalAlign=middle;whiteSpace=wrap;rounded=0;" parent="1" vertex="1">
          <mxGeometry x="170" y="200" width="90" height="30" as="geometry" />
        </mxCell>
        <mxCell id="csfzGqKFnjeh-MCSGnIr-38" value="&lt;font style=&quot;font-size: 24px;&quot;&gt;Organization&lt;/font&gt;" style="rounded=1;whiteSpace=wrap;html=1;strokeWidth=2;fillColor=#d5e8d4;strokeColor=#82b366;" parent="1" vertex="1">
          <mxGeometry x="1030" y="202.75" width="160" height="67.25" as="geometry" />
        </mxCell>
        <mxCell id="csfzGqKFnjeh-MCSGnIr-40" value="&lt;font style=&quot;font-size: 24px;&quot;&gt;Verifier&lt;/font&gt;" style="shape=umlActor;verticalLabelPosition=bottom;verticalAlign=top;html=1;outlineConnect=0;strokeWidth=3;" parent="1" vertex="1">
          <mxGeometry x="1090" y="110" width="30" height="60" as="geometry" />
        </mxCell>
        <mxCell id="csfzGqKFnjeh-MCSGnIr-43" value="&lt;font style=&quot;font-size: 18px;&quot;&gt;Initiates Verification&lt;br&gt;&lt;/font&gt;" style="text;html=1;strokeColor=none;fillColor=none;align=center;verticalAlign=middle;whiteSpace=wrap;rounded=0;" parent="1" vertex="1">
          <mxGeometry x="1110" y="314" width="95" height="30" as="geometry" />
        </mxCell>
        <mxCell id="csfzGqKFnjeh-MCSGnIr-44" value="" style="endArrow=classic;html=1;rounded=0;strokeWidth=2;" parent="1" edge="1">
          <mxGeometry width="50" height="50" relative="1" as="geometry">
            <mxPoint x="1109.5" y="272.38" as="sourcePoint" />
            <mxPoint x="1109.5" y="382.38" as="targetPoint" />
          </mxGeometry>
        </mxCell>
        <mxCell id="cABMR51wjXBZgp-4YjK6-16" value="" style="shape=image;verticalLabelPosition=bottom;labelBackgroundColor=default;verticalAlign=top;aspect=fixed;imageAspect=0;image=data:image/png,iVBORw0KGgoAAAANSUhEUgAAAHEAAACVCAYAAABvqxVEAAAAAXNSR0IArs4c6QAAAARnQU1BAACxjwv8YQUAAAAJcEhZcwAAFxEAABcRAcom8z8AAB/8SURBVHhe7V0LmBxVlU4EcVEhZLoeE4wgirsr7qoroOKqiOALWd3FZGE3mXRXVT9mhiQQ+FAE10FFVNgsBiHTXVXdPdMzk8kkBHn4XBFUXB7frvJGREVFEHmICULeSe9/Tt2ZTE/fqq7q6Znpefzfd74QUvfce8+599xzzn30vDnMYVojlrA/oCYLH1YTdjUlez8cM90jxadzaDawktr7LoQCy1rHhrKW6auk9v6y3jFYVk3n+zHLyWhWITPv5K6DRfE5TCU0M3uS1rnpK6phb9VXbi6rlkuKAtGfo4n+n1PW0r1lvXNjWT9nqKwm8wNK3E4JVnOYbCip7CLFcIqK5fy6ddUWKKQAJdkjygpDeidmZrp3T8zIXSrYzoGxtOuQY1d9+xXHrlo3hr79inldt43PfHV1vYz4LExc+1rFdO5ls4mZhVkoVVIY0lI9ZT3TX46Z9hdmvXltWdZ3uNo5dCwE+jM12fM4BFRJ6RL+dP+bFLAwUXjtkR2DrxVFa4K+pTKq5eS1TP/jimk/xcobMZ3jIy1ZpPVyXyzR3SmqnF3Ql1/5Ku2coZNg2r4LB2Knliry7KARXkEkdJg8fLeTSE310J+reU0LoJjhdIhvd6pWfoS3TBnjIVonlXSxZ/GatYeKrs0OHB0v/pWaLuY9J6Eo1iW5kDzCzKFvBFUp2odGyjRo5vmRDvOsJrLrFsSLR4guznAs3XSQYtglGsGjvb9ohHKkmCCqm3cdJGa6nrTfLHo5s4F1qYe9O5kwpjFpacx8w7kBVmZmz0Z2MDphenimyIUxbYnMPM3GePF1orszDzHTPUwx3d9RFkQqhBlAWrKwH3/eeWTb12Oi2zMLMDWDWnv/3rEdn1nklvX2AcSOzgbR7ZkFxIE3aZOwFmoQIq25UUnrGGiImeeQKFX8dUvbtW8SXZ8ZUBLZt0NA92sZdFDS8frJ9gJuzml6eU3FdK6H87Q+KmGQbdIyJeZB/DhEkdZZmyhpDl4/11Zc+xYhgukPBNxXeyGFvNPhSYQPIN5dWLWZPMLfQ5kXMiXdCyl9J6qNiPJ81cx1Eg/mZTgPsjLFzka0kMXm2FHL9D9wRCL796KC6Q1WIgX20g6HIQiQA/ciZghlXoplxJrnqZ0blsQSuRNFNQ0FxXxqsmeJmrSXQKFfIjN9IDERQqGGp0jFch+Cddi8KD2gCNbTECd3HQyvdH29M3E48wIh7oDZK8RShRMnSnG+6Op6WWvHxhOpfmoHtyeMuYUitbRnojHo7mBFLt10kOA6fRAz7WV6x+BfojkN1HnMONqUTfc+hZn8vcVrbn4NpesE2ykB1U/toPZQu0T7uL3yfgwTzD+lAtv7/4C/Dy1M545atHrTUYJtc2NBx/qFSjL/9UizkEYv1jsonXYdbm/tdI9uutGL9lC7qH3UTv2cTWziqe3SPglihWMWo9wuNd27K2Y4F+D/naRZTvM6QLHE+g+EVyAEgA62rt5CDsFjWtJ+l2ATCbG4e6re0X+WYjmhib6ncoJFJFA7tfYNG2Eu/+Q5QDVmJVkkWlfZJGONpwFr2s9jyTlbX3ndWYvacs0zQ/Xl6zUIqN8zN5LOjCFy7/HnNn3l0GVq4tp3CzY1obev1yC8SxQj55HpvKivxMwg7zAk0fdUbpgH8SO+oopQiCXsT2D92yb6EZJoiSGl5rkdNIBVI/djxcpfAmfqU4L11KHVuvZNXp40P6bhY4jCBShaSRa3KwnndFG8JtRE9gtaus/FKL5NX3WdFyvSrKdRLqunFqHcMA/iR3yZP+oRVdaEkug+XU0Vduj1Jg5GOUKkVLW9NBQzclOjTCzcC9CgWz2BBnRGmBV0eIdirD9DFA+ElsyfB9f9Fg7yqbMZNkfVvMdFECb4Mn+qh+vLnyeaEIiWuP0uKLKT18h6B5Qgr399sBLuxYL95AFC+D5vlPoqEEKiTrb379aSbjtG8BtFUV+oRn4JBPsIyu6iNFnNGd4oQj1cH+rl+g17yeGW0yKa5QvNdNvVTN9u7mfdg4zk1EODaK9m2u2C9cSDDyNZ7tP+ayGZDAofBnZiLThHFPOFuvyaY9VU8ZOqVdiptcNx4NHd6JlXizyni2eFld+J/j3VYjnvEE30BfWP+unJov42651sEfL1Z6MiQAj8PrLrssZ4IwsKxAzELF0livkilsqdqCQL3oAYp2lqGA0r07Sf0Vdu+Vhs2VV/I5orBfWT+kv9HpciKWOUKq4NYwXqBnUGntlPPTMqbwgrIl36c8zMBZ4OazHWHdfaOdQB0/Ukz756nISJJniUfOg4XbqP2iuaLgX1l60Ppe1kvEKRy05XvaFQTaip7Btg//+Xj7sHBLycfzRyj4tiUsTM9TQY7mldfb2YfZNtOqMR9ZnaS+0WXZBCTeQ6Vau4W6t7LScvvq8ca3NPECwbBz3e/TqMsHt5rzBIgZxrzO9RzdwnRdEqqBaZ45772ZGokf1oGkI7ub1oN7VfdEUKxbAf919qQhDPZPuHmuXoguX40bLMXowg+UGOaQJmDCvQggIT2TNF0Sq0mu7RCHAfqcWrOQlrPbUb7ad+iC5VwjvldwbJIVTyXEbiVJ1qOYGDJRQoDlzMp7ad+3lHXFbhMNF6lin9CeZkqShehUVtXzsK5uJhXrxlPKYJee13H6b+iK5VgeTA8qhnnWdTbO/VjPzrBbvoWJTOvVJdtfndGFHfgYeGGK/GQg1Tw6kky7lIsKiCvvzqY2Am7uf1UsZjmpHYd7yf+iW6WAWSh5dii2hxxqtExcydDSY2xSxsm0Ms0Lz9khl4RDNypwk2FSBnAB36mbj/N2OITCv6fo8at98muloBkgfCjic8Ry+CIsejRMofkntL8ZGUuYxoFq66njZDvy7YVEGJZ/+DUkvkeUl5TFsiC4S+J7JfFV2tQiyePRWKfDTS+livElHo856JiBZsczY/1Xu/FpdvKbVY3e/QMv0PeNkMOY/pTKyc9v77qJ+iy1XA+nizxoNYzqOK6lDi/JjlXMr7XXUEqZoXM24SvCqgrXDeoqZ7H4tsTqYToV/cP+on+iu6XgHV6H4rZIuwI+RAJiWSQ7Si5w2CRTDgeV4Eb2u/yglcCcMAEjnG30ofK4Crrcfdsz0zKi8/k4j6Sf31O52gJOxbEcTvk5WtIlKiYf/JN4wZCyy+V7RSWknGLIgwUhDQ7lEM5zrBqgJqvNiKdfIlzzRIys80Qj+5v+i3EEEFlGV9ixBrP+ftdkjKjxDLFeusczod3BLF/UGahk3fwqZUytCfqDFo9J7Yx93DBLsD6LrtYMxwgxvcjPnQiSAa1NRf9Ft2bV1fXnoVBrzYspKUHyFPiWpb7j2iaDC0hHtuq7e7PYZRLUJFPPLcLMyHdNtEMXLbI3lkM4Cov9RvIYIK0Ak6kpeXUw0a2J4SY3Hn/aJoMDBqOryNUBmzAGKb7ZRbjSFVsKoA7VDT8YVZY0qHifqLfiumLd2hx2zURr4bW3aEoET4GrEV2VNEsWBohpOuW4kgpa33rwWrCsD2/64eEz0TiPpN/ReiqMCCpH0MHJZtwWEclAhvl16+EsUCAC9KM91zdTrkJGXmR8JmYxbzsyVjwGbDdB+MdhpsBhH5AJm+7fjvq4RIDmBp1yGQjcny8zGplJfVkoUuuucpSvkDH50CZtuiOx7edMcAOEmwqgBmd0lr79vj18jZQNo5gzQbvytEUgE4k+8LCrv0jo0I25yzxOfBgBL+WV/9DQ5WZcx8CWuh97yW8xHBqgKcnajHRM8golMKmun8T0vSXizEMoJFSed4TJ5H/RIrnF+2nLj4PBh0pFxNle6u7fJWEnuc6d47ZS9IYHafgH//2UxNsUUhMoswndKcaiyea/PbDOAztQEb6lVQE9k4XdqUMfMjqkSJ584WLCqAWZ3nkGWmptgiEJlMmNRrhGgqoJg500+J3nrpbPBLGlQBwedqL1sTXuhUOYJ8S7CoAPg16JLp9CeWQ8JeJ0RTAZKf/7Yceaf94ePElhXdr4E53RJ4cm0MzSkxHLHF8tmeg5zS/s7NcJzohosTCYqZvRiOyO6wXip7T4lsUhSvwJwSRxHFglb+z5ph/4sQzwjoLqfWseElucy9EC70TCSIuO47vKVUxbCa6I4ejSRRvAIYeVfOll2LMMSyMu3zhXgOAPEiFLxWnmjxlKjEnePF1+FASiEvtVau08sN2r9EGFF1JQ3e6jFqqufm2ZqpkRGbVDN3rhBRBRBGfFFutaBEOkVuOBfRWSfxeThQIcQu24PyenTuBrO2SxSpgGrlPsUv/E67Y4gTR0FKhBwv9116oAOaVFBi9EccMMv+4t0lkDAGeY1yLxefV4Aa69uoWUp1K5Fmo5Xfj4n1tXnp3MtFkRDo6vL2AHlB9snrzSkxEtWvRFq6emnp2nl0vCvaIxRHtvXGsBC/6GdSvUrdz4vPKxCznAs4HScpN1tpPErkiZTq3Y3/Hoo2G5duOkhNOGd6WYPq2UjxJGbqelmGXTWyBmLIbUFr6myjGkrs4rO9knIjBKvIW1uJ7JdFsXBYCM/TT4lEevvgPjK74vMD6Op6GaWZAkfXbCI6j0s3vkz700JCI1hsOS0wlSW9vXaShZWYLNxB3r8oXhsUZAYqkUeX/Ac/aCGeU6JHFI5BAT+HHD8kxDMCzXCWB8l4LLWuvK6sGbmviOK10ZJwPkhBKhQiZTiXdgtHnABP5K4QoqkATYIociKF65nSHUoyZAKAsueIFx266ChjGKhEMqdzGRsmtlgY1EI0FSD5+SfAJUSm+VyYZsOu+fbBCGg/y2+kcOWGvUJ8WgHY/3V65yA9rSwtO5vIS7m564VoKhBZiUTk5KRKj+ohHoJg0M6yXyW0GCvJ/HnHSV54oAwDvNNbZ33qDeGB1rFhF5Qljam9xwyjLju2NzCS+VDvAM2jtz/9K0EIkenbgREhzbLjmxtqXkid4aR10Ik39zuyg2Rq56ZXY6BfWs9FWy2DyeFzLKYChyHgV63CVVxAwog8KjpSp1nOB0WRCuCbH2t8WmC25lDtstd/54dCJBXQjPxpfAEnpGc6mkIrsaUtd1qw5wQlZvrKrab8dQeMwJSa7nku6hW5GUPU70zvsyQHIZIKkNy85WYClVgrTmTytqS2UJpOFKsARuOjs3VdpJNuCCHuFaKoQKuRV0luJD9Z2WCKsCaqbfn31FQibZVgNqpWSfq6g2JmP6Ym8y9wMl1WfgYTHZqGoh4WoqiAutw51pNb9NSk91hTT3ftpz0pdbYi99Ew2QRSEBp7B932EaUPgPgYuReiHoec7qSlIBPL2eHzdvl8zep5C8Kz/dGVSFfqN5eVuDw+rwDsNb0x82yYSkhBUOKL85aWqy5VUoIcJuX+2adEkknuPvlF0/J8JWE/UpdMoA+9Y2CrhtBEMPMHvSLPWyBhlMimMr9VSRTeK4pXoMXIH8dPp9RhOqYloZ/keCw03b8TIqgAyUkx89vrWWLY0bSctfPK5fmCnQ/oYqjpdkIx+/w2hccSucqK4TwoOFTg6HjxCNXI3cANmOmHidE/0c8f0XPaQgQVIDl5oYWkfBBRym3VljJmoTT7UwHPBDrbg45njCU2DeneP/pdAKG3yRBu3OytsXIeM4G4f+gneZ+i6xUg+ZCcoptSxJx0eSldekJN2B8W7Pyhdl7zaqxxqCiK+0uBLe943CLYVCFmZJfzq0rS8jODqH/UT9HlKmA23cJygrxk5f2IdZHqfXxhW1Z6A60K9SkRBBsPM/GckuAd7CqbLXZF+viMZUgzPZ0I8fB+6p/f3Qk1kevU2jdETn6QP0EmGmb4TsGqNupWIs1GMidWfhc8s48KdhWgX/hWrcIGdJheIpbwmJ7EB66Thduof6KrlVi69CDNKpTopxzCzUJ8A+WRgwQHaBtk9bCSqf1u+ghi5lcPgxLrfiyBZhpGz5X0m1GCZSWOT78cHtbMyeSQBerYQNkZ6fmXlmV9h6tJ97JwA5eUhzCC9mINd6uW7r0H4ch7Ix8e9o7zO5sxAvbXO1tIQaj8s34jE99cxe+FTvewg8IJ7xJS9ZVuAVilk/naYIglhCeO4eyD+bxRMeXXBkPDe93B3lu3kNnuu/votpVgWQUs8l/jvco64qWmICiFb5GhH6JL1YA1ilmOHcYrp3WPB7/pSk/FRQbM3bE8KuqeKXSPgEaV7QiWUmiGfSXdJp5eoQdmFM1ALBuYZdJjF8OANSrU3LmnwUBbeqmedXTZVxQdP8gGowEXc5JWVnEY4pGKjpp2QbCVguIejNbBaeG1UvtgOXgGpoprg57ron6zAoP6hH8jc6wl81eKYo0FPcCqpks7eAdf1oAwNLxmJPOOr6MD0PPUilXcTJ1u2nv+6AsPykRus7py41tlx1IYUCxmq1NzzReDgZ3AdDrCye4oSOderiXd86NeA68i8rZYkUVn8ZI1hwruVVi8ZO2hiuVuVjOl3zabItnVJ/Np5a9bvGbItw+kDMVyruD2B631rMABKLlwVdDgbgg0M3sqOvAMm9Xx5D3FKFbTvVnyfgV7KSj5DlN0F/+cHq2VU5VvRb1UPzscqZ574TUO+j1/SaALL0qq5wp+ajRIgWRe06XtMdP9L1F04oGY8Qwo8jlvfRyfQDVKDifz2VqjT41f0woz0wMH6yE6As+7IOOsOzxBeaiPj96jfm4H2iOaJgf6g1nVze/21FjXSY4YpE+LkpMH+pk8mIitjXjiixyYWCKXE6wDQetya+fGLsStT9NvHB44WBQsqMjEggfhT7rRRfVRvX4Ps48F9YcdMxnv0UQ+AsnQyPn+WsGEgrxIrGsvsSBpwcZaV2vUSYkEBdMaM+1QiiQoSfu9avtgG0YwPOaSl9EnszXSjgAHQkajyhEfWsN0OnxE/5YZ6KT6RNU1Qf2o6YUS0b+zmc1eKIpODWJt2RO0VCGDxuxBw/Z4QugZocC1YDSRAEl47RtuhyPwOcE+FBAMv4+I1iiY+T1Yu9AWe+/odtQi+p7KeeWdQY9nz/v83qmTgdpN7ffWwBCDSAwc+pkmwWJqoSdLx/ADC4Zj6+39T2GGMEEwL1DWgddPnh0B6xjPSLjYmYF9mml/Vu3cFO7lJAFK1Osrh7gdlF9E3U9CGSNtkZNLbXySvqdyVJ74CJahQO2k9lK72esOa42GZ7/R/VbBqkkAb02/oPQqOiRF1GJmP4TR/VM0+qdQ8FZPkZIOjSaavSSIVPFF1eoxdHO99FhDLVCedrgdweSz01ADlMVCfwyvncOmUdIfP2paJQYASrwx9DF+7mCBXXrMmBf19o1nN0tnqR2tKzcuVS3bi1950IUYnGNJKLHVvCbcy/rNAJjSm6LfxcAIR2fZQzTsX2qdQ2sWLI9wM7aBoHqpfmoHv0EwbDGk7Q5Bw7PXyH2pVqzcNFDN3PVim6YOQqwGh4F/usfI3Qln6mrM0Gj31esE6rmc60O9HKOS49KoGJVP/Tn0Lk20/cGpgJJwknr7wB8jrxtjibImcJJok5SDZMP5HgbGzfhT+hxZvSB+Hl/7e6Pro/ql7aqXeDYW9yhmLnBTYOrhvW/d6z2D0kgheLewaIMVQn8JAfm9RAgZ7oWwv0VJdDqpV4voO/qeyg3zIH7E90AyQVZ/Y8hb952nySEUEms+xMz1bVrH4PZxrR+BhIFBThBmyggh9oMZfIaEU5vsZzheHFXesxgNnnW+RIOxf2/MyG0UImsu8A3hVKGbMxjSDkwUeZvQYWmiZ1stooGjJAsPxOK5vxWiax7EzOyp3oMLkzWqpy/pK1lOfUJ0zQHK9MPzGmq2vcBmJV7bE9naR/InE1Di2zT6gZQJWwtnFnHivb3/V7RDJEQ49cCoejunlerJZsxGQvjC78Im7Mtq33KaBBy7at0rYN9/zsGsrMFzJCca8Jn+55WkPfWzkff7LHfPuIP7WUh0DCWW7P6EEOXUQTGyv5q1P+w1TuI41cqvpRcXhTgnH5iBS9VU8bl6br7OEcjCbERcra+o/rmmSQMnqOkAlKyBU04iu8NhTxPHrpRkN+zBlmXrDhdinTyoCWcl3ORnm3UtZOUZ9t1QIN1Kkn7TFETygyKD7q5MCMgjVSznuvB37iafNHpE0Mh9F3Sy2j6wY6rTbf5EacPiftXI/UCId3JAN4K1jsEdzRvcQzDpEh3oGpq3dNMh+Ptlk5/TDU+eyXf/rBn51wsRTzwQ3J/fzK/uew9HuNsWr1nLx+5jiezn+UDwVJ0oD0Fk8hXT/gkLeKJBJ8U0+l1+co8ljZly8o5C7FUM59rhm0v0RJnW3veot4shKdMERMdZoMTbWcgTjVjS/oTezKOaHIVksbwgftURoskMxLMl/nHOZvVUKZ+a7v29Ytj/Kpo8MdCXX30MYsKf1PdC4CQQ4i5aXzAL/2PsWRbdyL8TDsQj3vojKTvlZJdbyVE07BtFkycE81vpDjrFhRCWvCFTTDClUNTeVqP7ONHmCsAD/BbWnuZ9n5zi2o4Nz0KhCdHkxoLOqMBm/6ZZ40IicU5mFYVAotkVUFLZRYrpPNPMs5Gv9Znu+gk4FVeerxm504YPwcobEIFoxvAxfsq5NmiNwhqtr9oCU2r/m2i0FPjuJpqtFIZI+TQBIRzarSXd2q8pRoWasJ9ozPU2vrhJntgWCPxu7/6h/NsoRButarr/IdXIv0c0WYqj/n39QijyhYZtnWHwUN3D/aK/S7+LQN4Py9hLRJMbA/pJHHR6a92Jbpp5iIP4DE6qZyPW1M8wXzP38VB3+2oRBNe6+ht05OGz3OAA0AuIXhjSICWyk2c/CvpPxcg95l1QHZ+14lvSyZ7BlqS9WDR7/MA68iAfv5BU6EtevOaZzTRmnuUU0eGOeccf+Ak5HQv4uN8FAHHMmuq9i04YCNa+oPcBMIguZeE3wEHTMDAhn+uJt25k39naOdQBK/Oid28RyiQ5SMoFkkGzEXKJO//IjW4EFNP9SegkMhpOJpJHk2E/qaaLH6GfXpAt1HCWjkR81DfeBLV3qDibFWxrgq/mkfmtR8CjiB2kVOEXkM8/CNYM+r1lGrDDMSub+qh1oSztEvk9lB8JWLcuh9f3Uk0TQcrjLI67B7QV68PHw+QCY4nsp72jjhKeIYjX6WT+7ii7AHSpRbPya7xttPqtAHnDEPQ9gm0V9GTPm+FpdmGQ8lU/z6cIqUz6ngZJvEjXzus/h8MHgq3C9/lCpawiJs/TxH/vx5+PYNZloowemJ4vjyeTwmYeI1awCw1ygNTMwNM1B6cvUZK9d48GB02wlKNcnn/kOdfHUMaF0n9JFipsypJnsOH8Qr+gvnuVDHokwH+WwKXvGOAGoXE/QmVfFMUiocWwV2iZgafqcppIAene7WjnWsEuEjCL1nDyQsa7BglP9Mko8RxddIVl2wJT+QB5oPwqJStKPoDFbwo/J4pHh5LofiOYfFMbfpRgmMilxmiiFy3QmFvw/3xfGQwLJZErRP/xK3QS5gllnxFsIkNNdH+GvFo/IQaRJ2DnpXruG9LdfS3d52I2u+DxLB9flKyZPLCtwjY4hdKnuWuCnu4/sH1DFYDA1HsG2r0bM/CSRh3wodHJ3lgUk0qz0CrsVuN23S9StFjOO9RM313shMnq8COuO78XS8fnov1gczWUhHM6P7kCJXrLVqUyOQtl2I+Iz8ODfgoB3tVdvC8HxZHpoHUP69fj+srrzoJrLv1VmnqB+t4Jb/HhSOkweH1ozw7fd9ZCIkbPdvIJBUkdfkQzxLB3vz6dWyDYjBsYyGdg5pET5JlqXl68iaOmS88rCft88Wk40Ls1refe4I24VHEXXRzV0gMnxdLFCbvJgxjvduEg1SYyPVhLNCu7fLwzgcONZP7/IoU5NLAhYD1ebPiTJhjIJ8HEdqM9u0YmEMWihn1r0NNkVVjY5p6kr9zyRMzIXboo3XuU+N8TCjKpMNEUnsgFN5qEEpVMIfzb2AGgNVnrGNgdOpbjmej84TWNzKiMAiXwF63edBSWl5vUTOmP5DzqHYP7NSN3ifgkBLq6XnZ0122T+kDAovRNr1RM5zehTCoHz84tlCwQxceHpZsOQd0PhcoNQ9HURj1hf4A2BgSHiUFX18GcEDHsH2E2Pq0ZTlH8S/MCa9yvayoRjhbtVkCJZ4piDQFM2O9DmVQ68Is1lB41EkUnBbF49/tRd4f4a5Oi67aDYVKfrzUbWMmp0q2tcL5EyYYAA+hiNVXYwX6ApN5hovq1ZM839Sl6nqW5Qa/2Gk4HzNUuf0F6V8JaVnSvFKUaCgyil9gzlNbtEW85JZrgEkyzYvGSoUMhyJ2eey0RID1wlCx+e0IeuqMfO7Mco1aymnYntICfE5r10JeXNJi1p6RKhGD1zsHd8JjrSu+FgZLqW4RB9BfV8htEiJWtwjX0lIooMocqwKTGzOwpvNs/ZjZ4Tof7A8o/iq8bD8Rhiumezflio1KBRHrnULklkeMN7TkEgB7Fq1aizY+pwzO9W3w2YaD61XTp4apjI/CKaT2Gpfiq+HQOfmhJ2u+qOhZJ5jXd+zyUuUp8NqFoSWTjY3c3OHPS3vdozHL+SXw2Bz8oy7KLVDM/MDpeJFOqJHKPiU8mHEo8u5oT/aN2N0ipsUTWFZ/MoRYod8s/aUcKpFlouTtaGn36KwDqiuwb1FTPt3gHYUSJQ+WYYQ+KT+ZQC2rCOROzby8rkXKkhv0UvB7fn/WZCChG7nOYffu4DZlSWbPy98DEN3T3ZkaDdssR8H+JA+t0qRxLuacM33CaLCygH7W28reSReBtuET2LvFPcwgLuPgXtZ53I61LD6ud8p95nWioiEnVTP92OFX08n/o03RzEOCDxeds/p0adz4i/teUAIPpQYQVdR8BmfXAurRFMXOm+OuUAGviE4rhPD+vqzyp5nzGQDPdU+nAlvjrlEA3bIv2OQN/sW0OzY+YmT2BNmjFX+cwh0Zh3rz/B/senwWeMqveAAAAAElFTkSuQmCC;imageBorder=none;" vertex="1" parent="1">
          <mxGeometry x="578" y="90" width="42" height="55" as="geometry" />
        </mxCell>
        <mxCell id="cABMR51wjXBZgp-4YjK6-18" value="" style="shape=image;verticalLabelPosition=bottom;labelBackgroundColor=default;verticalAlign=top;aspect=fixed;imageAspect=0;image=data:image/png,iVBORw0KGgoAAAANSUhEUgAAAJYAAACWCAMAAAAL34HQAAAAAXNSR0IArs4c6QAAAARnQU1BAACxjwv8YQUAAAAzUExURQAAABBwjxhwjxVwjxhwjxZwjxhwjxdwjxZwjxdykhZykhdykhdxkhdxkRdxkRdxkRdxkVaIlBIAAAAQdFJOUwAQIDBAUGBwgI+fr7/P3+8jGoKKAAAACXBIWXMAABcRAAAXEQHKJvM/AAAEhklEQVR4Xu2cWZLjIAxAQ7yv+P6nHRwkQBgT0h1BTxXvq7GT8hsQIDCZR6VSqVQqv0c0Lfz1l+j34zg6KJRECPjjpJXK6jgaKBaiGTd5iqwTtNz8sjpmXSpDu2qJF1t/Xtp0YX/dL4KYtIJhU01XXKtxqwroXC3RDdO6zGP/1F/IwlPHtkdvtJrJfmDJJiYCdXUCLtKROlkydU3ocem8OgQ3LTxMIdf5puYoI3yVEyOy6QF9gGIM/qG/gScdE47wDcR6DPb4wspZ7bzzhEsUEvgbfJQNaEPp5grXdpRDIx7P4Zy7NdzNCE9aoajR1ywzVqXptfTz3wceM0FR40WXc3OBS4eba3wfjCPaKHSK3B0Fge3IO3gJeMoAZY2pkxfkXg8XafV+HehgCxQ1NrRPSE3iv4N+4euAgYTiC2fgP6GzM1xkHiIwjJxGEV7E0+iG6mXuip1+ijtwj3AFIcsfnBWYc2nTtbC+GhrvChLy6Mwc8qZrqXCZ+m6YaXZ1Ip3gMikj+2xNu10Ip9eZqmTPUk0OcQ9OPsJYcU8+ChP198ihfYh2tA2cYxfA73ph3KBjHkwfz3FVvA8vj119aRnZpmvYZ/ghkilJFb+yYltxJwR7HJ5m/LUWz+iFWcpP4UojUhaFEdhmoG7dFfCUz5Cw3mUjvGUTY3sKsqHJgt0ckcvY9VNC7bGvX91V9Ao9y98cDMA/V5sp0aZ2XjYfgq6VGMBsZXOi5ZKiKrZlcvaZ3OSQBQwlN1m5TkurngDtkMKczWMaSKPY338z6YLZZyJruO+DWjSH8qLeuWl6CG8qiFp0LWNXHifSHaSwi/C2Is7XtLboRi9RzrPexyCmsUK7It2fge7A+37DCLhTnJe20jQUugOrls25nJHIf4VAawtGFM4JyB2gNvQS/isEshOPscU4/3i7M7pW2stcTdoLg5GvJ/p7Rqp7zWsozXGqy9QvW7p1tbrFBL1d8HNNih9YmaGrNd/hGrY+slLxNQ/d6LQw19r1Mysfpn23d1bvbvOk8nEruTaYKMzBDzJtP0Ss5DoN6qGoNYVeGu88Sc2N1TY2pm2MVmDFgUuRL3NjZd50nuAUc4Y2Hfb3IWtceW+XYCjQ43uHO9ByZZJKtIJE0Mb2s+uH1jbyt7GzB8G30vaSfTkIpFop+nliGsovfGCVkWqVTrVKp1qlU63SqVbpVKt0qlU61SqdapVOtUqnWqVTrdKpVulUq3SqVTr/lVWGMzExbqxynImJcGtV1CtixX745J6oFds7rXdcXnz75PhJ2oW3VkVGiQSrAl5JVtm9Eq3yHHQ3JFtxHwYjhK1k4LUp92/SXG6sutCvbfPV1q1V6FfAzAd+LRGrq1e2nngT7Vgr9G5pK5swuPeLWwW98o2lkXP4F6+MI3zsDLnnldEKDyuEMV6qTmVOK6+j+diTX3znF4LcHLVAuA+P3xL3yjamXyBeknYB9qP2ERwv2dHKK5K8I0blnAddr0JLHQRU9OxsvQpbgQrkDMaruJViWu1/5KK9/oKVx7Rvuc5dVSqVSqVSjMfjHyFhDsknuRs9AAAAAElFTkSuQmCC;" vertex="1" parent="1">
          <mxGeometry x="530" y="224.38" width="48" height="48" as="geometry" />
        </mxCell>
        <mxCell id="cABMR51wjXBZgp-4YjK6-22" value="" style="shape=image;verticalLabelPosition=bottom;labelBackgroundColor=default;verticalAlign=top;aspect=fixed;imageAspect=0;image=data:image/png,iVBORw0KGgoAAAANSUhEUgAAAJYAAACWCAMAAAAL34HQAAAAAXNSR0IArs4c6QAAAARnQU1BAACxjwv8YQUAAAAzUExURQAAAACvUACvUACvUACvUACvUACvUACvUACvUACxUACwUACwUACwUACwUACwUACwUACwUOxMxeMAAAAQdFJOUwAQIDBAUGBwgI+fr7/P3+8jGoKKAAAACXBIWXMAABcRAAAXEQHKJvM/AAAEhklEQVR4Xu2cWZLjIAxAQ7yv+P6nHRwkQBgT0h1BTxXvq7GT8hsQIDCZR6VSqVQqv0c0Lfz1l+j34zg6KJRECPjjpJXK6jgaKBaiGTd5iqwTtNz8sjpmXSpDu2qJF1t/Xtp0YX/dL4KYtIJhU01XXKtxqwroXC3RDdO6zGP/1F/IwlPHtkdvtJrJfmDJJiYCdXUCLtKROlkydU3ocem8OgQ3LTxMIdf5puYoI3yVEyOy6QF9gGIM/qG/gScdE47wDcR6DPb4wspZ7bzzhEsUEvgbfJQNaEPp5grXdpRDIx7P4Zy7NdzNCE9aoajR1ywzVqXptfTz3wceM0FR40WXc3OBS4eba3wfjCPaKHSK3B0Fge3IO3gJeMoAZY2pkxfkXg8XafV+HehgCxQ1NrRPSE3iv4N+4euAgYTiC2fgP6GzM1xkHiIwjJxGEV7E0+iG6mXuip1+ijtwj3AFIcsfnBWYc2nTtbC+GhrvChLy6Mwc8qZrqXCZ+m6YaXZ1Ip3gMikj+2xNu10Ip9eZqmTPUk0OcQ9OPsJYcU8+ChP198ihfYh2tA2cYxfA73ph3KBjHkwfz3FVvA8vj119aRnZpmvYZ/ghkilJFb+yYltxJwR7HJ5m/LUWz+iFWcpP4UojUhaFEdhmoG7dFfCUz5Cw3mUjvGUTY3sKsqHJgt0ckcvY9VNC7bGvX91V9Ao9y98cDMA/V5sp0aZ2XjYfgq6VGMBsZXOi5ZKiKrZlcvaZ3OSQBQwlN1m5TkurngDtkMKczWMaSKPY338z6YLZZyJruO+DWjSH8qLeuWl6CG8qiFp0LWNXHifSHaSwi/C2Is7XtLboRi9RzrPexyCmsUK7It2fge7A+37DCLhTnJe20jQUugOrls25nJHIf4VAawtGFM4JyB2gNvQS/isEshOPscU4/3i7M7pW2stcTdoLg5GvJ/p7Rqp7zWsozXGqy9QvW7p1tbrFBL1d8HNNih9YmaGrNd/hGrY+slLxNQ/d6LQw19r1Mysfpn23d1bvbvOk8nEruTaYKMzBDzJtP0Ss5DoN6qGoNYVeGu88Sc2N1TY2pm2MVmDFgUuRL3NjZd50nuAUc4Y2Hfb3IWtceW+XYCjQ43uHO9ByZZJKtIJE0Mb2s+uH1jbyt7GzB8G30vaSfTkIpFop+nliGsovfGCVkWqVTrVKp1qlU63SqVbpVKt0qlU61SqdapVOtUqnWqVTrdKpVulUq3SqVTr/lVWGMzExbqxynImJcGtV1CtixX745J6oFds7rXdcXnz75PhJ2oW3VkVGiQSrAl5JVtm9Eq3yHHQ3JFtxHwYjhK1k4LUp92/SXG6sutCvbfPV1q1V6FfAzAd+LRGrq1e2nngT7Vgr9G5pK5swuPeLWwW98o2lkXP4F6+MI3zsDLnnldEKDyuEMV6qTmVOK6+j+diTX3znF4LcHLVAuA+P3xL3yjamXyBeknYB9qP2ERwv2dHKK5K8I0blnAddr0JLHQRU9OxsvQpbgQrkDMaruJViWu1/5KK9/oKVx7Rvuc5dVSqVSqVSjMfjHyFhDsknuRs9AAAAAElFTkSuQmCC;" vertex="1" parent="1">
          <mxGeometry x="800" y="224.38" width="50" height="50" as="geometry" />
        </mxCell>
        <mxCell id="cABMR51wjXBZgp-4YjK6-29" value="" style="shape=image;verticalLabelPosition=bottom;labelBackgroundColor=default;verticalAlign=top;aspect=fixed;imageAspect=0;image=data:image/png,iVBORw0KGgoAAAANSUhEUgAAAGsAAACNCAYAAACwooSTAAAAAXNSR0IArs4c6QAAAARnQU1BAACxjwv8YQUAAAAJcEhZcwAAFxEAABcRAcom8z8AAB7eSURBVHhe7V0HeFVV1g0gyDg6DmIZZZqKgPQmTHAEQcUOiKiAwogFK/7WUVAsYxks42BjFFDBglISQhJSCZ1IDYTeQ++9BAiE/a917kl5ybn33fveS/ISXPPtzyHvnrrO2XufHiG/otzgjCJr14n98t3GGPluS6KvbE2Q77KSZd6K/frL8MQZQ9brq4ZJh1+elIhxtSUipqGvTKgvEaMby59H9pOXVnwmLy37r2w7vkeHDB9UaLJOnRIZtO57aT/zIZDS2JKJ10LaFJcESGJTiRh/NeQqaZb2oLw2YarIaR1ZGKDCkpW0bK00GjFQKie3ROU3ACGRxQlykhgQ92Ok9F74phzLPaFjLVuUCVnrs7dJys6ZkrJ7rq/sTJfMQ2v0V96x+dhOFe/3W5Kk6sR2IKmFRMS3RuXb9CZ/knCNIrr3wjdkx4l9OpWyQ6mSdehktny87gdpPuNBiYiuA1uB1ltYoq+WWmmd5OP1P+O7H2XIhmgd0hlfbhyvvm+T/pgVb2wzi6QEj73JTqKukvhds3RqZYdSI+u1VUPlxl+e0JWJFq9aOyuzsKBi4tiaYfCj64HAJtI9Y6D0yXzXVnqg1VtE4/vY5ogjL94iFR6MIL/tf3kK3mTZ9q4SJ4v2+cXln1oE0PPypJJQ6QxDm2MnKs4Qk1NU6HxEN5Tuo0aJnLTKVRYoUbJyT+fKC8sGWxUa38pcEeVF0OPPm3CbLD64Tpeu9FFiZB06eVSeXf6JJupv5goobxLbQNpCHZYVSoysrKPbLVtSUYiixLWUWskdJWFP2TgbJULW8dwc6Tp/gFZ9JWxPSlVob+vLhSMfknnLD+jSlh5KhKxcWOHzU25CS6TXZyp0sIJKo9eYNyvhRSbCrU8MogFxOPBTM3l7CZyNUkaJkLV4w36pmXAHelZLc4EDEhAEV155lRj31Ei5WdrPftqz1IrqLRGj4OLHwNWPgzeZxN7vxUOFJLSWKhNbyhcux4GhQomQdefoLyRiDGxVQjD2Srd+qlK66CCo45xnpd+yj6Vf5jsSt3OmTs0bZmXuk34zhku/FR9I57T3JGIYNEAsxn5eHaE45Avjr68wIC8tlAhZbef1RUE4/jEU0q+AJFYEjDkr8KLU22TopgkydMNY2Z9zWKcQGhzfLzIiY64M3RIl/1n/k5X+BKhJpu/G1iKPldArH814XRJ3zdaxlhxCThadi+vSH7dUlqmATsJpIlTUuWjhA1cNk1l7F8qSQ6U3rpmzf5kMXPmVSt/qOciPKZ/5AvXJaa2oOlIz8XpJAmHZp47r2EKPkJP15pqvpZoiyq0RR4E5TYRedEXq7fLAordkx7HdOrayAdNnPpgfpR7zp7FM+adYZfhtYlupP+1+mX9gpSw9uFpOoOGGEiEli7PpN3D+L6aRoUAmQSHhof118l3SbcGrsj3MFvyYH+aL+YsYd6XVi5xIy1Pf7Jko12NL3pex21Jl8p4FOsbgEFKyvt4cb63EOrZCLSxQdB35K2zS3APLdQzusRAt943ln8kbq4e7F3zPcF7B/L254nP5TVIH9CAXwxHlqECzUI1G15Pqie2t9Fd8IZuP7dKxekfIyFp3dKs0gwpQLctUgMKCAldNaCvfwPVddGitjsE/3lv7nXSFR9h1QX+pPeVeq7XTlXcr+J7hGJ7xMD4vGL9jmlRl/umEeFkn47dMHx5t8xl9kPZz8ubqr3Ws7hEysmJ2TLcyZMqsEhSMmY5pINXx73Hbp+iQ9qD3N3PvIqk/tTukhxUPl91d2RGT4HttH1U8+BvjZfxMx423yXz/IbkjvEDEx4G5pzzgW07BMW30vvppneVbaCO3CAlZk/bMlwvUjAVbmymTEFWwNtJ2xj+gxyfrkGYcOHlEpu2eKy1nPiRnk2Cqk7wFRc8E2QniKRQ302F6TJfpO+HIqWx5f+0Plsery+VNmDbtWhOpjHHkNyAs57T/tZeQkFVvWk8k7OBUcGCLgn2w7kcdwh6HTx2Tu+a9BF1f16oIRZAhzlAL02F6sDF3zX8ZY7tYnSN7fLBulEVYMMs/6Olnw6bl5JYCWd9snigXJLazzzArAV1/0LofdAh7vLX6G7l1dj9LTZniKi0hAdFXy4vLP9c5swfLZa0uBNio0MOqQt5wYcOCIutrtL6z6VDkL9MXzUykVI1tKe+uHalDmHEUvenlFUMsm6eICpWqC0JUT2sFtd1bvvQzB8jyWSqRDTaAvDMcyv3Wmm90jGYETNbXm+KlGtWG8v5MGcTf4Jo/gbGGE7jZ5bLkG1ULC0qdlIQou9JQNbgvN8boHJvx3poRGBSz0QZSBtTV+LpyT8ZAHZsZAZE1ckui1RqciOKIHq1zrIPXNww9U8VBD40VUyyecBCURTdK5tcJXZI+kojRKEsgu6pim8p1sx6R1Uc26diKwzNZP2xNlsr5PcqQKCWuhVQDUU7uuRpAMw7GZYoj3ESXmfm2Q8qC7VJt3M1oeLBhpjgcBY0C47C31tjbLk9kjdycABuFTNvaKAhIOgu2avR2e/d82KYJUC2Iw4nwcBTkl/lm/u0wekcqyo9vA3E4YLO53dsOfsk6cPKwTNuTIY2mdZffJF5vqSw7oigY9A63bX2nZbhfpyScBflFvs+G5mA57MDysx7McThIoGTtx8Awfe9CaYpBbPV46GC6p/68HTgIl0+6Q5Yf3qBjKcCpHJFRy+ZKlfg8FVreiMoT5Bv5rwINQ8JM4yOW/9KUjqgzbiPwUM5AyDoIojrPex6Br0bGULmuujQyNe4KGZw1Vsfii5xskcuGPof42DNN4cuZoIedlXCdZGPYYcL0fZlSZ9KdumEawpvEK1kc89w+70UV0P2aFAQ9r9X0XrLYZmJ24OqhUimRU0bh6vV5FJTjLDTi11cP0yUsjr5LPoDTUBffu+xdXsjiKucdiijv+rby+Iby/PLPdEy+eBtjEKXDw20cFaywPCgXy2fCysMbpfbkruiFaKSm8D4CQjEufXvttzp0cfiQdf/CN9XcWARtlDFCG4Furjv1PtmXc0jHVIA9OQflOp7uUAbXg/4uF4LyoFwsH8tpQveFb0gV5ZT5qVP01PNA/leb7AffPmTdPId2ymOvQiIcU72wwtyrPuRGFL0cUWEF5WM5TaD9v5jbA/zZLpDOEzFOBy3zyUrbM1+uSuusXWpDZHYCN/acpA5y6nSujqkAHI13YK+iJ2kKW1EE5WM5TbMPR05mY8jT3hVZPaHZnJBP1mPKGLpcks8Tqkv0qsFZo+Xk6VM6pgKM3pZmreZWOPVXVFA+lJPlLYoc1MvgrJ/xDb1qB1Woe5YT8sl6Ac6B5QEaIrITenYTmsn6o1t1LAXIOrpNLp98N1pUBXMq7ATlvHxKN9l5vPiBu6zDO0AmG6ydJ4zfxteTLvNf0SHMyCfrtVXDvNsWZPDKyd1kzdHNOpYCcGOI6voVxVX3J+w1cCSit0+V3NO+lmfLzuPytxHQXAk25gB1dA6cC54OdYIia+3RLXILF/282paYRjJ++zQVUWFQJX6SNcYiyqtnWZ4FjZM7iI8aNnpyUtvyiA3hUO/NZj6ov7SHImso3MWIKNiWBI+2BZ7jGIOePpabI+cm3YjMe3RWyruArMvSOkku/lcUXK1Q56lN9htkcVrPHxRZvIqgsprHKhKJH6k8oYlx8wtP5V/qdaqlIkhCKzk76kb5IHGurokCcMNoj4xXQYyhnkFWc7c96/CpbHkk8z10Uw97H/DtU0s/lCOGubH7Mga6GwhWNFEHxZvItanP6ZrwxdtrR5j9gtimUj+ttxw4WLxHFka+g/H00o+9ue5IlPvaTYic1Retxe0W6gomKHe7OY/rmvDFq6u+Qr0ZPO7EVlLph/byfOxE/aUZ+WTxvNNfUm51r7qQKBM34fpfnjJ39zNBYhrLTXP76ZrwxYBVX5p7lgp3tdyzaID+0ox8sohb5r6gAhkjKyr4bsDq/+mQvjijyUpoJpeM7SkT527RtVGAV1YOseZeTeG8DIqJ5YeypGYcHINYP72LunlsA3l5iXl54IbZz5y5apCbZX5uIo+nF2/IWzD2bGs3/RZTX3pnvq2/NMOHLM4i9v5pLGwXeoXTDp3E5nL+991ldHrxtatNx3ZIi+m9ldE0hj0TJKaePLF8kK4RX3TNGIDfDY4cNNEtc56RHcf36i+Lw5csYF/OQenAnuFkuzAY7rLAPDXy+JL30dUr+Cy7P4E9f2rpR7pGfNFp/j9V/RnDRdeVTzaYV9qJYmQRk3cvsNetFCTWGYma8CTcec/TVhVNAiUrtpm0ddg7aCSLd8k+sPB1RGqzYIjEmKgJzKTnCeGKJoGSRYm6SqK2T9Vf+8JIFvHtlgQ5h2tbpolY6Ny7MRo34aHMd9ErbaZVzhQJhqz4VvLHSV1k8Y5t1pVyhWBLFhcTORNhnHyENxM58yE1AVwUn2aNkRokKpBNjhVFHMjqtqg/fncgi45ddDNp923xlXdbsoj7F71pJotkoPe8tMJ8JOaMdt1ZN1BlDxrc8KVrD0vDOIxB43mbgSmslrhWcl7SdVCHvtvPHcm6J+M1kGVjf9B6Bvw6g1Fc4lpI3cldJX3fYl0bBRg4a7xEjIRZSfSndUA4nLRr032nrRzJemjxe1JFVbphzAWyfp1uMgg0yk1zntU14Yv+az/H7y73EcKM/D4+0ueokSNZvOCxIU/g83R60cgcyGoxo49yQoqFORMEjZSN1QTbiVyjWL3r3gUD8rf4OZJFcAXTOD2CiN61uZqArxP8hr3xTFnSLyyw8c1sFhK9kaUF34+EZ074J4vXepvIim0u187sY3u30h/Tupx5i49QXb9LbKdO35tgu57lJCDfNVlcbjaSpbye2mqVuSi4B+FCL8stFUXgXFyceoeuBV/M2LdI6qRx9fwac1g7gTnh4zaEI1nPL/9UnUWyVWeIKH5n8ftis0+dkMaczPWasfIuKC/LzfIXhdow43VfJsUtWV1h3By7LXrcm6uHq0s8iiLjwCr8zjsiHGbvK5LoBp15sPjzHKwfnjZR9VE0nKNY2ivvpKUjWT35GoFxUKyFGYTtysrepkMUYPeJA3LL3Ofx+xmyw4mNEo13heEgId9XsQ65e2y4qLumU+9T9yASjmQ9sOhfIMvJe0Hi6PqcDzS9hJO8a45376e8CnpN38XvG+9/WnVkk9WwvXrH0XWl/8qC4ZEtWdzndlFiWyTgZ/szbBqvaDthOK4Zs2OGnBWHrp9Q0ecJI6UqxqKmewW5O1dNv3m235FSJaYRyPpSx+RA1ofrR7kziMjEBckdZemh9TpkAdjbnps3VCJ+gjcZyN0Q5UJoV+rIU0s+NGoXDm2qJ6DReyUrhoPrJ9XERB6MZG0/vtdaz3JrEDFqbzvbPGqfsnC3nPfdffguTK75CamgPLBF50G92a1BsV68T70hXjh2bWa5mBtUdwfyVjJjRAbBeKpWys2213fH7JoqNdUZpQrmyqM8NZPaK3VvAuuD9eJ5vBnXSqpAeO9IYRjJmrgzXfcqt6rLUgU9Ml7XMRRHw+kPqDGDOXw5FZSH5bJDjwx406gXTxqFTggaQd7YqjBCRBYEidRIaCND1yTLScOly7xn9pLU23S8FUAdouXXmnSn7f2+0dBONeiqu/YAUSd05uA9/z7lFrVxqShCRxYTS2gs5w95VNZuLjCKhTEb44UreRSWF5cY4yhHEl1PJu5K1yXzBVfjn1Z7UTih4KZhop5hdqontpO/z3hQpuzJQBzFTxcbyeKZK6v7miL2I7FN5KVVXEEufmyV+HzDOIkYdzm+La+9C/ke30BazuhlPPHJedEXV3zm0qlAXNyPgcF07wX95dvNLve6F8aG7O3WDTOBbNTkmCqquXyUOkfH5oulh9fLNcp+NcC3HgeJ4SAg6prp90sW6sgEXrGg1Jm/8Sn3qCCu7hmvyvBNcTq0M4xkER/z0HLUVYg4gB4Q00KujOpb7LhmHjYe2yktpoGwcc28e0plKegFzDfzb0IuVNe9qPzKSs3bmRD8HQ5EdUj3+f2NR6bsYEsWH2v5Hdn3OkWiJFIqT2ws3RcMQGbMb3PsPHJY7v5+hFyY1FH34HBVi8gX5zdhoxpDI2y1edWB5WR51fSaU52Nb6huuc46ulmyPT5WbUsWoe5wUuOtACqSGUbGu0MXm2blFdDxZu7NVE/zWTo+3AhDfpCvWpM6Sad5L8mm7B064744KAdcEIW4oPa4PrjteGBvrTiSNWbbZLkouYPqtuYMuBAUoFvGAPX6jx1m7MuUy5JvQsOAUxNQTy4JgbqCR8x8MX92oOJ4NPF7fOtnEgFEtZ7eWzbaEO4GjmQRTWf2UQkZM+BWQNi9Ga/BPzTbMGLugRUyRL1hRbVThrenMV3aUeThYhDFfNnipMgLo6dIxPA7nLeXwdtrPb0XHLfAiSL8kjUPmb00FZkJZjDLwSEI65Ex0LGHEdwmcHHyDQiHMOqNRjtDHWopSO/i5Btl5OZ4WW3YcZwHlqPngjck4sfrQJSDkxTbXC5LvV3NtwYLv2QR8w6slD9y9kEVJlDCLBvWY8Grfj2gQyePqIt9W07tbjUSDi7VImaAaTsK4qS9RDpMj+kyfScw/yyHslEJTt6s1UjvW2g/DecFrsgiuFr5l5RbrLuYAlZRVuZ7QiX662F54MPUDy/6V8GrPmp+kb0tT0zp2EmhcIyHlR11pbSZ9bBKxw1Uj+JOZYb1lz5sPXc1uy2rP7gmi5hzYLl8tOYb9ZySKqzaTEP3Pk9ckoiwXTDoft/F2yR5yDi4SgavHan2JKp0VW+Ay0/nxycPNsLv+D3DITzjGZw1BnF+B+/M3SNrzC/zbTUYQ7l8BERCG4TyGURPZOUhfd8SmbR7jjyyeJBUQ8GrJbZTojJJ54D7DRxbHVQPnRYUmu9InfA43uCK7KTdc2XSnnlq1rsaGkleHoyC3/kdv2c4ry/FMX98rMzqjXS23Khji6xZhj3vgSIgsvLANw03Ht2q3FHKkI3RUhvG9Iop96jLfv0SpocEf4Z6HQGDHohbu/vEfoTblp8Hs2xT33nFjr0nkK+JKn+qLCq/bu1mmJFlQu7pXDl8Mlsuw0DS/1QSCk7VyZ6Ib3lJ1fhtqcYJ0tIE05+waao0HvYO1CZVKHcmUcW7JYpikWXa7hAoQk4WkZN7CqP+zi7IKiSsDE5+8qm9mQ/KoDUj1DVFpQmmx3SZvpoXTaBNDsKZim0pzy4bLNm5oXkOt0TI4k4nz2TlC1ove1p0Xekwu5/cP/9l+WJDlI65ZMD4mQ7TU9NryuZ66UU2EseZ90jZnXNApxQcSoQsXuFaVRHlZLP8CSqLYyxUHu1f8xm9pcXMh5R3tTfnoBZvlcDv88IyHsbHeJV9JUnBDPyNEilVUA/d4L6HAiEniwa9/pT7dMFNBfAqqDy63srtbirnJt8oNVJulhrJHaVGUgf5cWuymmXxJ/yO36twCM948uJU8YeUpELCGYxJd6jXZoNFyMni4NKaqTdkPBRC1UKvLGjxszgYSuFEwMK3dA0FjpCSxc0jTeC2WzrfkOkSEaha5Zz4kaBUcpCCsWidtE6SunuerqnAEDKyuMHjv1xdPiOuBvcqqA/Ui5tHOJ0QMrL4+P+FSTegFVP/mzJ8hktMQ3lh2SfqYZ5AETKy+LpP6S5plD+pHNNEpu1dqGvMO0JC1jEM+nhK0rqn8FeybAWeZ5/Md40P7LhBSMhS269IUml6WOVR6OiAsLVHij9a4AYhIevejNfVs3q/9io/AnteCc7GwoOrdM15Q9Bk8YhqLQz6StddL8cS20IaTe+la88bgiarBy/jUqumhoyVmcBV5nQXZyfCbRgBDfS7xOsleddsXYPuERRZU/dmSN1A3twqaUF+eNlK5/kva8IM35SljG8gbYpcouUGQZHF865hOQhGZfRe9LaM2poilbze6FIaAkfswoS2tjfR2CFgsibtni81E9rpqRxDhspMIuWs2GbyYOY76kHsTtxV7HRzZpkIGnd0XemR8ZrfnV6FERRZ1i3TYdarQFSNlI75MwVd5/cXz6cPS0mqxDTOv5fJDQIiiy320cWDwtADjJRKUDGFHwvlcc8L1XnmMBwDRteTn7dN0jn1j4DI4tqMtQ4UZipQzUtGyp4Tvkc8m6r7DzkVZghTlhLbUq5L7yubss1HiIoiILLUNT9BrwSXgMQ0kI/WjZLjRba2Td+7SKrw93DrXfEQDHtSds9Vqxb+4JmslUc2yHlJHVSrMGagrCS+lfwh+Qa1GbQocnJPwpVH71KzLIawZSnI018nd5OTueZjvYXhmayO6uHpMLxZGi30Q/QqO8zevxTfwCFiazaFLyuB6q6K//KKO3/wRFbirl/kL6m3BdmroDrVhGYTS4zfeBV4elG15Z01I3VOi4PP+HVVg+QQOkUsRyjsNuxp7an36pzawxNZDy9+T1VKQG5wAvdOtLBUEezdx+t/lmGbYlFYkhek7UNhI6HmVvuZzebhwIioAE9y2gryTvsdzKYbOGuuH+h0A95NdAEz42klGN+zIPTEoq6XSxM7yONLPpAVh61dqpuP7dReZTBk8UayJvL8cvPb/oXBl19/y8YSkt7QUH7emioz4LxcNulOqcrtbNwLr+L2SBrCVI9rLq8UugHNBNdkjdqW6mFwqUmNukouSr1V2s56XAZMTJbDx7J9vB5uU76aZ7CCMfwxTdRL49x37w98P7lP5jsqXwH3Akr8NVI7rYu6R5Dg3RdfbYyRtjN41Swbp9vDC4UERP991qOyyeYmAMIVWTtP7JdevNXTdL+7SfQs/BOL3pLk3eb7MPIwYccMZDRAhwUt8mz0LJ5EcYvoHVOlFs8vB9NA4KgM32y+u+Jfa76RW+dwZy8atqcJbpCLRsQrLezgiixuklQEOHlS3KeuWlUjeWbph8bHpk0YjRF8wGeWUeG/S+moeowX3DDn/5CmmzNWJkGlgojPHB4l43zfkKwxcs3Mh60pOY7v3JiP2ObSGr3T7kyXX7KoXq5Nf8KmJSLjJAgt6Jy41tJtwQDo8Awd0h34Fn1VNW0VgN1Cnvh4tdc9DVypvQTqOaDeBfvbed4Lrg7g0San7Jyl9v1XoS2jfeb5Naeyoncl2qx1+SVrPnpVZUbiM/onSfg31MHFaNlt0h+TddDf2TYXlDhB3fa5bLDS2T6Z9ifs5bANE3fNUje7eMUFJMvz3KalqvhGixfw8Tgu19SHnas/raelHtX0F+LziR8kgtAvN45XhzuKwi9ZLdiVfcZDiBCOxjlJHaTrnGfVKchg8c8VX3hfF8NYr8X0XrLxmPcDeFSbPbnCrRqghx4NVV8zoa2qzGDw1NL/QN39Q9WjGs4ULjfUZWV4lqZDF45k0V1X1xxwEJzn5YD5ZxYPkrHbi7+pHyjS9syXeml36YwXqhxbQeFA7g9bUnQM3rH1+G6rTF6GIhN4b+3TOobgQKftjRVDpM7U+1RvtfLBhgNBI+Kx2KL6wpGsjug56ro5uMd8uWYsnIboHdP0r6HFXf4u/C8sqLTb5/ZTt7cFCl5R9DIfefbyKBvSbT3zER1DaEBnYuSmGPmtmm/lpAEaEDrE+Sk3F5svdCTr4cX/VoZ49r5Mdal+SYIru2fRAPtTS/pB61cWB7dvnEjfv0TOncgpIzeqMFIqw8bdOe8lHTq0WHlko3yaNVouSWqv1C3XurhmWBiOZNH4Hw5ib7YXMK2reNeFP6Of0EwuGtND4udv1CEDB20Xx2iuhg5o8Ren3q6chZLE4ZNH1bGp+sk3S/MZffRfLfh1MEoTdTmb4UgWbBUqNjK9rw4RPHiyw5VzA7Kqo9WH6nywP7BRfLZhnP6XhbAi6890MtQ4xFBZFBhevk9V9OHKYMABfxMaead01WRzK3l7zbeSc7q4S11aCCuy+LxTNU6I2nloMMB1pnXXX4cOtM2VnMZ5HNAi7Y1BODShQFiRxeuxVcXQwBorrLm6+8/NErgX7MGY5k9pnZQXVixdCno0b4aze0a9tBBWZO2Bx8lxjHJfi1VYS2nzS1910r4k8OTSj+QsDpLZKIqmHdNIxmx3N9dZkggrsog5+5dr+1HEnUaFxW31vj/cLbjPsHLC39EoDPOFUJGhtJOBIuzI4myGurnMQNbYLebHWUIBTlj/e913aCjs1UXShgf6a88ygDbp3AS60XnqCP8fA8THMEA8dMr8EkOosIgvyBVdOkEj6Zv5ntrYWtYIO7I4UP1g7Q8FA1V4hjVB2E8edq4GCp6LvoLXGOU7ONYcZP+V/9NflC3CjiziP+t+QiVdIRG0IdF15Y4SmuIx4auNE6y0SRTsF6+v45pbOCAsyVp4cLW0ntFLGfZLUm6yfaClJMDnN9rkPaQ9vr7cvSA09y6FAmFJFvHokvclYuyfpHUIp5bcov+qL6UStzHAXnVb8Kr+a9kjbMniSznnQBXRjpQ2OJZrMr2XXJh6i+w8sU//tewRtmTxRtDW6Y8GtWYVDK6efj/Iuk3/KzwQtmQR3O7FqaCywKC138uf0rqoQw3hgrAmq6wxGQN0r9vcShK/klVuIPL/5tCJgzdz77kAAAAASUVORK5CYII=;" vertex="1" parent="1">
          <mxGeometry x="826.28" y="120" width="43.45" height="57.25" as="geometry" />
        </mxCell>
        <mxCell id="cABMR51wjXBZgp-4YjK6-30" value="" style="shape=image;verticalLabelPosition=bottom;labelBackgroundColor=default;verticalAlign=top;aspect=fixed;imageAspect=0;image=data:image/png,iVBORw0KGgoAAAANSUhEUgAAAHEAAACVCAYAAABvqxVEAAAAAXNSR0IArs4c6QAAAARnQU1BAACxjwv8YQUAAAAJcEhZcwAAFxEAABcRAcom8z8AAB/8SURBVHhe7V0LmBxVlU4EcVEhZLoeE4wgirsr7qoroOKqiOALWd3FZGE3mXRXVT9mhiQQ+FAE10FFVNgsBiHTXVXdPdMzk8kkBHn4XBFUXB7frvJGREVFEHmICULeSe9/Tt2ZTE/fqq7q6Znpefzfd74QUvfce8+599xzzn30vDnMYVojlrA/oCYLH1YTdjUlez8cM90jxadzaDawktr7LoQCy1rHhrKW6auk9v6y3jFYVk3n+zHLyWhWITPv5K6DRfE5TCU0M3uS1rnpK6phb9VXbi6rlkuKAtGfo4n+n1PW0r1lvXNjWT9nqKwm8wNK3E4JVnOYbCip7CLFcIqK5fy6ddUWKKQAJdkjygpDeidmZrp3T8zIXSrYzoGxtOuQY1d9+xXHrlo3hr79inldt43PfHV1vYz4LExc+1rFdO5ls4mZhVkoVVIY0lI9ZT3TX46Z9hdmvXltWdZ3uNo5dCwE+jM12fM4BFRJ6RL+dP+bFLAwUXjtkR2DrxVFa4K+pTKq5eS1TP/jimk/xcobMZ3jIy1ZpPVyXyzR3SmqnF3Ql1/5Ku2coZNg2r4LB2Knliry7KARXkEkdJg8fLeTSE310J+reU0LoJjhdIhvd6pWfoS3TBnjIVonlXSxZ/GatYeKrs0OHB0v/pWaLuY9J6Eo1iW5kDzCzKFvBFUp2odGyjRo5vmRDvOsJrLrFsSLR4guznAs3XSQYtglGsGjvb9ohHKkmCCqm3cdJGa6nrTfLHo5s4F1qYe9O5kwpjFpacx8w7kBVmZmz0Z2MDphenimyIUxbYnMPM3GePF1orszDzHTPUwx3d9RFkQqhBlAWrKwH3/eeWTb12Oi2zMLMDWDWnv/3rEdn1nklvX2AcSOzgbR7ZkFxIE3aZOwFmoQIq25UUnrGGiImeeQKFX8dUvbtW8SXZ8ZUBLZt0NA92sZdFDS8frJ9gJuzml6eU3FdK6H87Q+KmGQbdIyJeZB/DhEkdZZmyhpDl4/11Zc+xYhgukPBNxXeyGFvNPhSYQPIN5dWLWZPMLfQ5kXMiXdCyl9J6qNiPJ81cx1Eg/mZTgPsjLFzka0kMXm2FHL9D9wRCL796KC6Q1WIgX20g6HIQiQA/ciZghlXoplxJrnqZ0blsQSuRNFNQ0FxXxqsmeJmrSXQKFfIjN9IDERQqGGp0jFch+Cddi8KD2gCNbTECd3HQyvdH29M3E48wIh7oDZK8RShRMnSnG+6Op6WWvHxhOpfmoHtyeMuYUitbRnojHo7mBFLt10kOA6fRAz7WV6x+BfojkN1HnMONqUTfc+hZn8vcVrbn4NpesE2ykB1U/toPZQu0T7uL3yfgwTzD+lAtv7/4C/Dy1M545atHrTUYJtc2NBx/qFSjL/9UizkEYv1jsonXYdbm/tdI9uutGL9lC7qH3UTv2cTWziqe3SPglihWMWo9wuNd27K2Y4F+D/naRZTvM6QLHE+g+EVyAEgA62rt5CDsFjWtJ+l2ATCbG4e6re0X+WYjmhib6ncoJFJFA7tfYNG2Eu/+Q5QDVmJVkkWlfZJGONpwFr2s9jyTlbX3ndWYvacs0zQ/Xl6zUIqN8zN5LOjCFy7/HnNn3l0GVq4tp3CzY1obev1yC8SxQj55HpvKivxMwg7zAk0fdUbpgH8SO+oopQiCXsT2D92yb6EZJoiSGl5rkdNIBVI/djxcpfAmfqU4L11KHVuvZNXp40P6bhY4jCBShaSRa3KwnndFG8JtRE9gtaus/FKL5NX3WdFyvSrKdRLqunFqHcMA/iR3yZP+oRVdaEkug+XU0Vduj1Jg5GOUKkVLW9NBQzclOjTCzcC9CgWz2BBnRGmBV0eIdirD9DFA+ElsyfB9f9Fg7yqbMZNkfVvMdFECb4Mn+qh+vLnyeaEIiWuP0uKLKT18h6B5Qgr399sBLuxYL95AFC+D5vlPoqEEKiTrb379aSbjtG8BtFUV+oRn4JBPsIyu6iNFnNGd4oQj1cH+rl+g17yeGW0yKa5QvNdNvVTN9u7mfdg4zk1EODaK9m2u2C9cSDDyNZ7tP+ayGZDAofBnZiLThHFPOFuvyaY9VU8ZOqVdiptcNx4NHd6JlXizyni2eFld+J/j3VYjnvEE30BfWP+unJov42651sEfL1Z6MiQAj8PrLrssZ4IwsKxAzELF0livkilsqdqCQL3oAYp2lqGA0r07Sf0Vdu+Vhs2VV/I5orBfWT+kv9HpciKWOUKq4NYwXqBnUGntlPPTMqbwgrIl36c8zMBZ4OazHWHdfaOdQB0/Ukz756nISJJniUfOg4XbqP2iuaLgX1l60Ppe1kvEKRy05XvaFQTaip7Btg//+Xj7sHBLycfzRyj4tiUsTM9TQY7mldfb2YfZNtOqMR9ZnaS+0WXZBCTeQ6Vau4W6t7LScvvq8ca3NPECwbBz3e/TqMsHt5rzBIgZxrzO9RzdwnRdEqqBaZ45772ZGokf1oGkI7ub1oN7VfdEUKxbAf919qQhDPZPuHmuXoguX40bLMXowg+UGOaQJmDCvQggIT2TNF0Sq0mu7RCHAfqcWrOQlrPbUb7ad+iC5VwjvldwbJIVTyXEbiVJ1qOYGDJRQoDlzMp7ad+3lHXFbhMNF6lin9CeZkqShehUVtXzsK5uJhXrxlPKYJee13H6b+iK5VgeTA8qhnnWdTbO/VjPzrBbvoWJTOvVJdtfndGFHfgYeGGK/GQg1Tw6kky7lIsKiCvvzqY2Am7uf1UsZjmpHYd7yf+iW6WAWSh5dii2hxxqtExcydDSY2xSxsm0Ms0Lz9khl4RDNypwk2FSBnAB36mbj/N2OITCv6fo8at98muloBkgfCjic8Ry+CIsejRMofkntL8ZGUuYxoFq66njZDvy7YVEGJZ/+DUkvkeUl5TFsiC4S+J7JfFV2tQiyePRWKfDTS+livElHo856JiBZsczY/1Xu/FpdvKbVY3e/QMv0PeNkMOY/pTKyc9v77qJ+iy1XA+nizxoNYzqOK6lDi/JjlXMr7XXUEqZoXM24SvCqgrXDeoqZ7H4tsTqYToV/cP+on+iu6XgHV6H4rZIuwI+RAJiWSQ7Si5w2CRTDgeV4Eb2u/yglcCcMAEjnG30ofK4Crrcfdsz0zKi8/k4j6Sf31O52gJOxbEcTvk5WtIlKiYf/JN4wZCyy+V7RSWknGLIgwUhDQ7lEM5zrBqgJqvNiKdfIlzzRIys80Qj+5v+i3EEEFlGV9ixBrP+ftdkjKjxDLFeusczod3BLF/UGahk3fwqZUytCfqDFo9J7Yx93DBLsD6LrtYMxwgxvcjPnQiSAa1NRf9Ft2bV1fXnoVBrzYspKUHyFPiWpb7j2iaDC0hHtuq7e7PYZRLUJFPPLcLMyHdNtEMXLbI3lkM4Cov9RvIYIK0Ak6kpeXUw0a2J4SY3Hn/aJoMDBqOryNUBmzAGKb7ZRbjSFVsKoA7VDT8YVZY0qHifqLfiumLd2hx2zURr4bW3aEoET4GrEV2VNEsWBohpOuW4kgpa33rwWrCsD2/64eEz0TiPpN/ReiqMCCpH0MHJZtwWEclAhvl16+EsUCAC9KM91zdTrkJGXmR8JmYxbzsyVjwGbDdB+MdhpsBhH5AJm+7fjvq4RIDmBp1yGQjcny8zGplJfVkoUuuucpSvkDH50CZtuiOx7edMcAOEmwqgBmd0lr79vj18jZQNo5gzQbvytEUgE4k+8LCrv0jo0I25yzxOfBgBL+WV/9DQ5WZcx8CWuh97yW8xHBqgKcnajHRM8golMKmun8T0vSXizEMoJFSed4TJ5H/RIrnF+2nLj4PBh0pFxNle6u7fJWEnuc6d47ZS9IYHafgH//2UxNsUUhMoswndKcaiyea/PbDOAztQEb6lVQE9k4XdqUMfMjqkSJ584WLCqAWZ3nkGWmptgiEJlMmNRrhGgqoJg500+J3nrpbPBLGlQBwedqL1sTXuhUOYJ8S7CoAPg16JLp9CeWQ8JeJ0RTAZKf/7Yceaf94ePElhXdr4E53RJ4cm0MzSkxHLHF8tmeg5zS/s7NcJzohosTCYqZvRiOyO6wXip7T4lsUhSvwJwSRxHFglb+z5ph/4sQzwjoLqfWseElucy9EC70TCSIuO47vKVUxbCa6I4ejSRRvAIYeVfOll2LMMSyMu3zhXgOAPEiFLxWnmjxlKjEnePF1+FASiEvtVau08sN2r9EGFF1JQ3e6jFqqufm2ZqpkRGbVDN3rhBRBRBGfFFutaBEOkVuOBfRWSfxeThQIcQu24PyenTuBrO2SxSpgGrlPsUv/E67Y4gTR0FKhBwv9116oAOaVFBi9EccMMv+4t0lkDAGeY1yLxefV4Aa69uoWUp1K5Fmo5Xfj4n1tXnp3MtFkRDo6vL2AHlB9snrzSkxEtWvRFq6emnp2nl0vCvaIxRHtvXGsBC/6GdSvUrdz4vPKxCznAs4HScpN1tpPErkiZTq3Y3/Hoo2G5duOkhNOGd6WYPq2UjxJGbqelmGXTWyBmLIbUFr6myjGkrs4rO9knIjBKvIW1uJ7JdFsXBYCM/TT4lEevvgPjK74vMD6Op6GaWZAkfXbCI6j0s3vkz700JCI1hsOS0wlSW9vXaShZWYLNxB3r8oXhsUZAYqkUeX/Ac/aCGeU6JHFI5BAT+HHD8kxDMCzXCWB8l4LLWuvK6sGbmviOK10ZJwPkhBKhQiZTiXdgtHnABP5K4QoqkATYIociKF65nSHUoyZAKAsueIFx266ChjGKhEMqdzGRsmtlgY1EI0FSD5+SfAJUSm+VyYZsOu+fbBCGg/y2+kcOWGvUJ8WgHY/3V65yA9rSwtO5vIS7m564VoKhBZiUTk5KRKj+ohHoJg0M6yXyW0GCvJ/HnHSV54oAwDvNNbZ33qDeGB1rFhF5Qljam9xwyjLju2NzCS+VDvAM2jtz/9K0EIkenbgREhzbLjmxtqXkid4aR10Ik39zuyg2Rq56ZXY6BfWs9FWy2DyeFzLKYChyHgV63CVVxAwog8KjpSp1nOB0WRCuCbH2t8WmC25lDtstd/54dCJBXQjPxpfAEnpGc6mkIrsaUtd1qw5wQlZvrKrab8dQeMwJSa7nku6hW5GUPU70zvsyQHIZIKkNy85WYClVgrTmTytqS2UJpOFKsARuOjs3VdpJNuCCHuFaKoQKuRV0luJD9Z2WCKsCaqbfn31FQibZVgNqpWSfq6g2JmP6Ym8y9wMl1WfgYTHZqGoh4WoqiAutw51pNb9NSk91hTT3ftpz0pdbYi99Ew2QRSEBp7B932EaUPgPgYuReiHoec7qSlIBPL2eHzdvl8zep5C8Kz/dGVSFfqN5eVuDw+rwDsNb0x82yYSkhBUOKL85aWqy5VUoIcJuX+2adEkknuPvlF0/J8JWE/UpdMoA+9Y2CrhtBEMPMHvSLPWyBhlMimMr9VSRTeK4pXoMXIH8dPp9RhOqYloZ/keCw03b8TIqgAyUkx89vrWWLY0bSctfPK5fmCnQ/oYqjpdkIx+/w2hccSucqK4TwoOFTg6HjxCNXI3cANmOmHidE/0c8f0XPaQgQVIDl5oYWkfBBRym3VljJmoTT7UwHPBDrbg45njCU2DeneP/pdAKG3yRBu3OytsXIeM4G4f+gneZ+i6xUg+ZCcoptSxJx0eSldekJN2B8W7Pyhdl7zaqxxqCiK+0uBLe943CLYVCFmZJfzq0rS8jODqH/UT9HlKmA23cJygrxk5f2IdZHqfXxhW1Z6A60K9SkRBBsPM/GckuAd7CqbLXZF+viMZUgzPZ0I8fB+6p/f3Qk1kevU2jdETn6QP0EmGmb4TsGqNupWIs1GMidWfhc8s48KdhWgX/hWrcIGdJheIpbwmJ7EB66Thduof6KrlVi69CDNKpTopxzCzUJ8A+WRgwQHaBtk9bCSqf1u+ghi5lcPgxLrfiyBZhpGz5X0m1GCZSWOT78cHtbMyeSQBerYQNkZ6fmXlmV9h6tJ97JwA5eUhzCC9mINd6uW7r0H4ch7Ix8e9o7zO5sxAvbXO1tIQaj8s34jE99cxe+FTvewg8IJ7xJS9ZVuAVilk/naYIglhCeO4eyD+bxRMeXXBkPDe93B3lu3kNnuu/votpVgWQUs8l/jvco64qWmICiFb5GhH6JL1YA1ilmOHcYrp3WPB7/pSk/FRQbM3bE8KuqeKXSPgEaV7QiWUmiGfSXdJp5eoQdmFM1ALBuYZdJjF8OANSrU3LmnwUBbeqmedXTZVxQdP8gGowEXc5JWVnEY4pGKjpp2QbCVguIejNbBaeG1UvtgOXgGpoprg57ron6zAoP6hH8jc6wl81eKYo0FPcCqpks7eAdf1oAwNLxmJPOOr6MD0PPUilXcTJ1u2nv+6AsPykRus7py41tlx1IYUCxmq1NzzReDgZ3AdDrCye4oSOderiXd86NeA68i8rZYkUVn8ZI1hwruVVi8ZO2hiuVuVjOl3zabItnVJ/Np5a9bvGbItw+kDMVyruD2B631rMABKLlwVdDgbgg0M3sqOvAMm9Xx5D3FKFbTvVnyfgV7KSj5DlN0F/+cHq2VU5VvRb1UPzscqZ574TUO+j1/SaALL0qq5wp+ajRIgWRe06XtMdP9L1F04oGY8Qwo8jlvfRyfQDVKDifz2VqjT41f0woz0wMH6yE6As+7IOOsOzxBeaiPj96jfm4H2iOaJgf6g1nVze/21FjXSY4YpE+LkpMH+pk8mIitjXjiixyYWCKXE6wDQetya+fGLsStT9NvHB44WBQsqMjEggfhT7rRRfVRvX4Ps48F9YcdMxnv0UQ+AsnQyPn+WsGEgrxIrGsvsSBpwcZaV2vUSYkEBdMaM+1QiiQoSfu9avtgG0YwPOaSl9EnszXSjgAHQkajyhEfWsN0OnxE/5YZ6KT6RNU1Qf2o6YUS0b+zmc1eKIpODWJt2RO0VCGDxuxBw/Z4QugZocC1YDSRAEl47RtuhyPwOcE+FBAMv4+I1iiY+T1Yu9AWe+/odtQi+p7KeeWdQY9nz/v83qmTgdpN7ffWwBCDSAwc+pkmwWJqoSdLx/ADC4Zj6+39T2GGMEEwL1DWgddPnh0B6xjPSLjYmYF9mml/Vu3cFO7lJAFK1Osrh7gdlF9E3U9CGSNtkZNLbXySvqdyVJ74CJahQO2k9lK72esOa42GZ7/R/VbBqkkAb02/oPQqOiRF1GJmP4TR/VM0+qdQ8FZPkZIOjSaavSSIVPFF1eoxdHO99FhDLVCedrgdweSz01ADlMVCfwyvncOmUdIfP2paJQYASrwx9DF+7mCBXXrMmBf19o1nN0tnqR2tKzcuVS3bi1950IUYnGNJKLHVvCbcy/rNAJjSm6LfxcAIR2fZQzTsX2qdQ2sWLI9wM7aBoHqpfmoHv0EwbDGk7Q5Bw7PXyH2pVqzcNFDN3PVim6YOQqwGh4F/usfI3Qln6mrM0Gj31esE6rmc60O9HKOS49KoGJVP/Tn0Lk20/cGpgJJwknr7wB8jrxtjibImcJJok5SDZMP5HgbGzfhT+hxZvSB+Hl/7e6Pro/ql7aqXeDYW9yhmLnBTYOrhvW/d6z2D0kgheLewaIMVQn8JAfm9RAgZ7oWwv0VJdDqpV4voO/qeyg3zIH7E90AyQVZ/Y8hb952nySEUEms+xMz1bVrH4PZxrR+BhIFBThBmyggh9oMZfIaEU5vsZzheHFXesxgNnnW+RIOxf2/MyG0UImsu8A3hVKGbMxjSDkwUeZvQYWmiZ1stooGjJAsPxOK5vxWiax7EzOyp3oMLkzWqpy/pK1lOfUJ0zQHK9MPzGmq2vcBmJV7bE9naR/InE1Di2zT6gZQJWwtnFnHivb3/V7RDJEQ49cCoejunlerJZsxGQvjC78Im7Mtq33KaBBy7at0rYN9/zsGsrMFzJCca8Jn+55WkPfWzkff7LHfPuIP7WUh0DCWW7P6EEOXUQTGyv5q1P+w1TuI41cqvpRcXhTgnH5iBS9VU8bl6br7OEcjCbERcra+o/rmmSQMnqOkAlKyBU04iu8NhTxPHrpRkN+zBlmXrDhdinTyoCWcl3ORnm3UtZOUZ9t1QIN1Kkn7TFETygyKD7q5MCMgjVSznuvB37iafNHpE0Mh9F3Sy2j6wY6rTbf5EacPiftXI/UCId3JAN4K1jsEdzRvcQzDpEh3oGpq3dNMh+Ptlk5/TDU+eyXf/rBn51wsRTzwQ3J/fzK/uew9HuNsWr1nLx+5jiezn+UDwVJ0oD0Fk8hXT/gkLeKJBJ8U0+l1+co8ljZly8o5C7FUM59rhm0v0RJnW3veot4shKdMERMdZoMTbWcgTjVjS/oTezKOaHIVksbwgftURoskMxLMl/nHOZvVUKZ+a7v29Ytj/Kpo8MdCXX30MYsKf1PdC4CQQ4i5aXzAL/2PsWRbdyL8TDsQj3vojKTvlZJdbyVE07BtFkycE81vpDjrFhRCWvCFTTDClUNTeVqP7ONHmCsAD/BbWnuZ9n5zi2o4Nz0KhCdHkxoLOqMBm/6ZZ40IicU5mFYVAotkVUFLZRYrpPNPMs5Gv9Znu+gk4FVeerxm504YPwcobEIFoxvAxfsq5NmiNwhqtr9oCU2r/m2i0FPjuJpqtFIZI+TQBIRzarSXd2q8pRoWasJ9ozPU2vrhJntgWCPxu7/6h/NsoRButarr/IdXIv0c0WYqj/n39QijyhYZtnWHwUN3D/aK/S7+LQN4Py9hLRJMbA/pJHHR6a92Jbpp5iIP4DE6qZyPW1M8wXzP38VB3+2oRBNe6+ht05OGz3OAA0AuIXhjSICWyk2c/CvpPxcg95l1QHZ+14lvSyZ7BlqS9WDR7/MA68iAfv5BU6EtevOaZzTRmnuUU0eGOeccf+Ak5HQv4uN8FAHHMmuq9i04YCNa+oPcBMIguZeE3wEHTMDAhn+uJt25k39naOdQBK/Oid28RyiQ5SMoFkkGzEXKJO//IjW4EFNP9SegkMhpOJpJHk2E/qaaLH6GfXpAt1HCWjkR81DfeBLV3qDibFWxrgq/mkfmtR8CjiB2kVOEXkM8/CNYM+r1lGrDDMSub+qh1oSztEvk9lB8JWLcuh9f3Uk0TQcrjLI67B7QV68PHw+QCY4nsp72jjhKeIYjX6WT+7ii7AHSpRbPya7xttPqtAHnDEPQ9gm0V9GTPm+FpdmGQ8lU/z6cIqUz6ngZJvEjXzus/h8MHgq3C9/lCpawiJs/TxH/vx5+PYNZloowemJ4vjyeTwmYeI1awCw1ygNTMwNM1B6cvUZK9d48GB02wlKNcnn/kOdfHUMaF0n9JFipsypJnsOH8Qr+gvnuVDHokwH+WwKXvGOAGoXE/QmVfFMUiocWwV2iZgafqcppIAene7WjnWsEuEjCL1nDyQsa7BglP9Mko8RxddIVl2wJT+QB5oPwqJStKPoDFbwo/J4pHh5LofiOYfFMbfpRgmMilxmiiFy3QmFvw/3xfGQwLJZErRP/xK3QS5gllnxFsIkNNdH+GvFo/IQaRJ2DnpXruG9LdfS3d52I2u+DxLB9flKyZPLCtwjY4hdKnuWuCnu4/sH1DFYDA1HsG2r0bM/CSRh3wodHJ3lgUk0qz0CrsVuN23S9StFjOO9RM313shMnq8COuO78XS8fnov1gczWUhHM6P7kCJXrLVqUyOQtl2I+Iz8ODfgoB3tVdvC8HxZHpoHUP69fj+srrzoJrLv1VmnqB+t4Jb/HhSOkweH1ozw7fd9ZCIkbPdvIJBUkdfkQzxLB3vz6dWyDYjBsYyGdg5pET5JlqXl68iaOmS88rCft88Wk40Ls1refe4I24VHEXXRzV0gMnxdLFCbvJgxjvduEg1SYyPVhLNCu7fLwzgcONZP7/IoU5NLAhYD1ebPiTJhjIJ8HEdqM9u0YmEMWihn1r0NNkVVjY5p6kr9zyRMzIXboo3XuU+N8TCjKpMNEUnsgFN5qEEpVMIfzb2AGgNVnrGNgdOpbjmej84TWNzKiMAiXwF63edBSWl5vUTOmP5DzqHYP7NSN3ifgkBLq6XnZ0122T+kDAovRNr1RM5zehTCoHz84tlCwQxceHpZsOQd0PhcoNQ9HURj1hf4A2BgSHiUFX18GcEDHsH2E2Pq0ZTlH8S/MCa9yvayoRjhbtVkCJZ4piDQFM2O9DmVQ68Is1lB41EkUnBbF49/tRd4f4a5Oi67aDYVKfrzUbWMmp0q2tcL5EyYYAA+hiNVXYwX6ApN5hovq1ZM839Sl6nqW5Qa/2Gk4HzNUuf0F6V8JaVnSvFKUaCgyil9gzlNbtEW85JZrgEkyzYvGSoUMhyJ2eey0RID1wlCx+e0IeuqMfO7Mco1aymnYntICfE5r10JeXNJi1p6RKhGD1zsHd8JjrSu+FgZLqW4RB9BfV8htEiJWtwjX0lIooMocqwKTGzOwpvNs/ZjZ4Tof7A8o/iq8bD8Rhiumezflio1KBRHrnULklkeMN7TkEgB7Fq1aizY+pwzO9W3w2YaD61XTp4apjI/CKaT2Gpfiq+HQOfmhJ2u+qOhZJ5jXd+zyUuUp8NqFoSWTjY3c3OHPS3vdozHL+SXw2Bz8oy7KLVDM/MDpeJFOqJHKPiU8mHEo8u5oT/aN2N0ipsUTWFZ/MoRYod8s/aUcKpFlouTtaGn36KwDqiuwb1FTPt3gHYUSJQ+WYYQ+KT+ZQC2rCOROzby8rkXKkhv0UvB7fn/WZCChG7nOYffu4DZlSWbPy98DEN3T3ZkaDdssR8H+JA+t0qRxLuacM33CaLCygH7W28reSReBtuET2LvFPcwgLuPgXtZ53I61LD6ud8p95nWioiEnVTP92OFX08n/o03RzEOCDxeds/p0adz4i/teUAIPpQYQVdR8BmfXAurRFMXOm+OuUAGviE4rhPD+vqzyp5nzGQDPdU+nAlvjrlEA3bIv2OQN/sW0OzY+YmT2BNmjFX+cwh0Zh3rz/B/senwWeMqveAAAAAElFTkSuQmCC;imageBorder=none;" vertex="1" parent="1">
          <mxGeometry x="827" y="80" width="42" height="55" as="geometry" />
        </mxCell>
        <mxCell id="cABMR51wjXBZgp-4YjK6-33" value="" style="shape=image;verticalLabelPosition=bottom;labelBackgroundColor=default;verticalAlign=top;aspect=fixed;imageAspect=0;image=data:image/png,iVBORw0KGgoAAAANSUhEUgAAAJYAAACWCAYAAAA8AXHiAAAAAXNSR0IArs4c6QAAAARnQU1BAACxjwv8YQUAAAAJcEhZcwAAFxEAABcRAcom8z8AABUCSURBVHhe7Z0NmCRFeccXNUDCcdMzdwcxjwZFk8hjjMYYTQhwamK8AAFvp3r2DpBLIJzcTtXsgR6gCIsCguHDUz6EU75EEYJIQMRENJDw8RBRjEcOPCJ6fAkKiZ6CwAlc/m/N27M9PW/3dM/O3O7dvL/n+T+7O/VWdW/Xf6r6o6p6RFEURVEURVEURVEURRkeFrkdAuMWQu8NjP1wxTTexSmK0hswk4MeK4duc1z47KEgbJzAYcqwsvN76vPK1fHXV2r2r0pV98fzF698OSelgtbpa0lDCbqYw5VhoDI2sUfZuKNhjq+XQ/usYAjSi0j7dtnYU8o1+xec1YO08xKx6TJuNWdTtlWoRUI3dZNogC5CvvWV0B1GZUjpWSrV6m/mXVC2JUph40/QclwrVXphGfu4+HmGYMpP864o2wowwlhGd9c3BaF7Ett5Skwz7j/xs4afx2N/LsXP2/D3T6Ang9DeCdNfjs9ODEz9oLlj7jW868psBRV1fFS5gxaZplS1o1JaYRl3CbWy/G8oswm6pyRWWpaMe178PFPW/yzV7HuQf1Fn+jSE7pvO6fhfUmaasmksESsqKeO+ia5pVcmMm12WNHalvKWDVpQrYyv2qBh7OMx5tZhP0ECMFclYvbKcaeZW629BRTwnVhAL50M3lqr1t1P8K8xRv0m3E9CVOXx+ZmAaB80bta/zhYHS6MrdYbALpXLiGqixSMZdN++AVTvzbilbGpjqerFiWDhZ/pCPIzOF7k4phgQzbURlnjOyfPlvUDydP8F8v5RiSQM3FoTtr60c7ObS/ihbkK4Va9zZPi50J3WkpQiVuR4m24/yBdUVfwRjPizF5TKWcd/Fz8v8+Z+pL6kYZ1D+B3GedjHK3dgRL+sa2hdlC4LW6t+EivBqVuCxJVTqHVJ6NyHfGbSNoDaxj5TexVg3V2qNqt9JIpzcvlJzfzav1vjTkTB8KX86Uq7av8F2virkT8h+jLMogyao2TfKleD1FR8TuguEtPxCxVM5MNCpyTTJWDDJuihPKRx/E8z9WZji7ngMvgwv4OddSLtwnpn4Ax9r7Dvx96NtcQkFtfF9KFYZMDjYxyYP/pQae5VrjX0Tn8V+zycY876ohYFBvh1PSxqLLgT8jgGYZ1U8NlXGbQpM3VEemOvVMGZq9wjj3eALVwYLDvbNyYNPQgX8C6Wjku6R0iNR6wIz3Iif2Y9sjPukLy/RJU4Zy95NLQ7FzFtS/x1sv/izSWOvXxCO//ZcM/5alPmEGEPC9mg7yqCYnHyJeOChknEr6XxGSiOh4n+RvAmJz3A+Jsej0p/gsLYuMTIWJ3lQTo7zJVkw+NXNMux+UrqXcdf6DSmDgVoG8cBD80fH9w1MY1xKI1WqE2/jYtqAKVIfB9G9LQ5rdYlkLP7Igy5tIpmvuBrLqSxqweR0++zIwsmX+Q0q/adUW/lm+cCT/JXgRVIazHMFFyGCFuH/pHx0m4BDWl1i3Fh0Eo68PTweahf2+yk61/LniEI6Kai5v+XNKv0mrbvAOdPTlI5K/i8pHS3B+30BKSDfN8V8ict9xJ0aNxbSPyHnI9kHgur4CfToaM7S5fOxD2MweOoVINJOozLT7p9h2+f4jSr9p1x1e4oHHdpt2bIdUXlfltKg87gIEeT7kZCHKvMfOKQFur4D+NcMQ7oH6BESh7WgR0hIezIR6wVj8cWHWyOlQ3rDdFCURlfsLhxwr9LYxKvQookjHVBZ69POUYKqO1DKQ+o2IhQx4pUctvePHNJBULXnS3lg7p/69NB+SEpHmXf4ApT+4x8kCwe9Kbu08x7WlGC6u0dGNm/HRXkq1fG3Ie2BZKyXcZs4TCQYHd9NzAdFN0Al5o/Vf1/KQ6IvTim0fyelQRu4CGUQwCD3CgeddBndExI+bwl51+GbfxpOko/M6HKaQjfHmxTJ2hbNAOKwDtCVvkHKQ6osdq+g7ldKwxfnfi5CGQQwxNnigTf2ORprhQo4TkwvKHo0w5tMBXEbkvm8qvbzHNJBYBri7QmY/pFmunz7A5/f5gtQBgPNQJYOPIlMRzEw2b9L6bll7Cq/sS4gTrxYgEmeCsbs3hzWIhij8zn7opQHZV1PMfj5OTFdT94HT+olOalWfzeNJhDTcgjmvIk30xUYKHVYNMp5Bt3a5dTy0bj2Stg4SoqL6SQqEz9p8kVHevyZpDIg6AGudPBJqOzH6Y65H2Eauv9IpmcJec/iTeRiztKj56MFEo1QRDDhQ+VweYm+FFI6qWLqulbEoKH7QUHYEO8H0WgGGp0QzX5B63aCHDclGGpduTbxbl94QWCK90plFlF0hx/dYMo4Mz/k5hq6FaHTxgYEDvLHOg+8LKoIyuMv8U19CQz3cerqUMb9+HklYo7llqDtNkRRUNYVyW3nFfKuoTIqxoZSelL0lCF6tqj0CaoE6WBnCifyg567N++Aw3bG+dSl4vYzBJNcQPfWFoTjc9BqPijFpIlaYt68Mh1gqvQhLjkUtV6DBPt4cM5zrg00aYOz9T7iter25CKUXkGlZQ7hzaUt0HrNMW4BrZmFFuzatlbIuB/i7y+RwamF4/ARP74rvo9FhHMyLkbpBTqxFg9sj9oSrVcE3aEns/Gf7SxyO8AcP5D2MY9g1I1cktIL+LbzCM728et0Ilsy9b+nE/OiQqX4qV4zibRfomo0OWPq/25TrfGHXJxSFHyr3ycdVLQ8DwfV+jKa7ZxHXNyMQa1XL8KXZ6X0/5OynksqXaCpVdJBzSucn82KmS5+PmHo7pP2sScZ9xwXrfTCTouP3AVd16/Eg9tFdB5Cw365qJG55qhKyTQWI+1kpH0VpnuMToJR4WfSVR3NmOHQwRCGL4UhVif3sxehxb6TS1V6BSYovlwRhHyHchF8O0B+FtcmY4/hLAOjH61X26xrpUcmJ18CY9CKeeJBloRv9Gcoq18tOXSXJdOzhG3dRGs4+G0PCrH1aq7D1U34wlzIpSjTZuHky2CWL0oHulP2fhoHT9lQCZmTWFNl3KadRxu/57c9DWgAH42VR5knkSHoYiS+nkN765XDWDqxYjDQczVU0EVQ1tT0gykWMWdJ6bll3HV+oz2Aq7nFyP9DsVySsS/AUBe8fP/lvzXVeqUbC//L93Ua2BYAlSKue4UK+Balo6KylxvKKZh0hd9gTnZbNrkj9kGeNCGKpoq5Aykv9vmjcoz/vzaWDpwI/EaUwYEDLV8p8ghQpKeNj6dK+hUMczauGFeXTeMU5Em9Aw4DPx11W92g2UJZZWUJ++Nn92R397q00UDhOXrCgUcF1ewb6XUmUhoJFXd7clwTtTJIS71Ko4GDHJoJTJU2tzGXSjX3Dj/oz1h5alloH+ZNKYOAT4Y7Djwq5IXmFWT6Ihs4R3srF9OGn7Gcejui+xgo6jLlvAVk3HeoLPz+gY40Fk1b8xtU+g+NupQOOir3MUrHN1scOYr0zImfMKS4gjKdZHOICK9zlXkTF+m3opx/6tpVGnsKXQGj2xNfiIByJnmzSr+hVY9TDvqDzXT5wS2dv/gCUkDFnynmM/ZrHCLiH4YL+Zqy30jeE4N5Uhdpw743Lz5C+89iemj/1Rei9B+0WCdKBx0V5rsSGEFc0giVtt4XkAJixIXd6ASfQ0TQhZ0j5kPXSo+kOKwNapmEeOoOn/fdeWgbUjr+h7VchNJvUCniQh4w1EWUnr0Im7W+kARZg+7o+SKH+SW++dcWMMHtUj6Y4EQO6YDGaUl5SHSxkDoOntd5UPpMJbSpc/ToW+6DwsntpfSWjDvaxzE07gkm+LUYC9FaDRxK3eynaYIG/+mBWcXzq2C0fjyHiNA9LCkfPj8iqNq95TS3OVqXXukTtCSkdKAj0QJpHErdU/YEB+OeoPMVGOUhMZ2F9LZJrGQsfO5XaI6AEdpXSY6UMaua3kAh5oHIVDwKQ0i3P+MilH6Qtu5BJFT4FzjUQw+fYZwfS7Hp6nykklzOiI2F7TVXPibwWcooT1rlRoZaTTmP20yPeVCmePsCn9/LRSjTJe1ENhIO9iNkJA5vkftFTunyU9/jRMaCMTZFXWLaxYKXseeOhOH2PjNDQ16QP2WZSfs9ikE+eR0HnUTRH7qZihSfTpUElV7guV1MprlQBwEzLYT8PbCWsZryXSLN/ol91iHkWU8Gw09aTeaaZHpcVD6VifiUhd2KLQWgCGSt09BS4kRcwr+8Mm1JyKT8Av/NK0e/2FtszBR9ljAWKrrZJeL3k+Of9yKU/Si9oAnbP1RKJ+m7DacJVa50YNvUZeHaOAv8jGO3BkYRV0lG2jPQDdGKfDDMQdiHthnKzc/bjUVGnOoSiw1GTCoIG4c0y7HrpHTo55Su9EgQurpwUNtVwFRJaAAf8o9hOx+nu+b04JqTqFIPhb4lbbOZnjAWRIakNLrHlUzLK3rc0yzfni6lk5Dm79MpPYCDl34iPKUPcHjP+KUZYYRK1f2173JxDoQT5/uFbbVE+SRjsU6mdFoTC2WlvqEsRcdSXrR+KUtFNpW8f6bkBJXWfYRAzhX3ktAcPJj2jOa9qy7v0kkRlZNhLNq3c/3GAEyaZ9nKm6O5gch7jJA+JX6/j1IQWnRWPKBx9TiDBmboy5vuuax0Y0F803UhxdK4MJh4P3zWXM8htHfi7/OpZYruj9G7qfH3JVJZLRn7U3rlC8UrBSiH9e6m4u6iCHQbAJXc00sxJVGZ3YwVic6Z6AKA5jL6nYlDE0Oqjf1R1lopb4f4fYhKAfBtFKfQt8sex+G5YVM9JpfXm6jcvMZKaAOMhtbK3Yr/9wf4f8SxVpKQp3WHX8kJjcyUDmZcOLAf5PDcDMJUJBS9HbVEUtoghG5TB/UVBd/aI6SDGdeWMZX9NSpwHVqSLyPfaaWs0RO0Tlc/1urqJuOex7b8FDalAHTyKh7QmHCiW3gdqzymgonugZmWlqvjr6dZNZy1DaRPezXkXoX9v0PHtfdAxdjDpQMaFw5u5jgmiVwtVc63laL1KrxwR8UPc7HfkNLyCPu+FtJWqhcqoTtMOqhxoUX5MIfnpp+mIug9g4gXH/1Iwrb9+wYJWokZ/8NZvnsVYuNCq/ww8q7JeoiudKFkGhkTDpqi+z0cnpt+myqCbhWg5aI11uUyWTDQVZylg8rYxB70YoAgbCxDa3YcfWnoNAA/96P95jClV7JnsTQFc6SOD09jUKaKKJv6nzdvD0jletP5xzjKDJDxDr6W8A0ufFk9aFPFoZdDYR9ppZjroXOhY8pjK17JycqWptkFCBUe02w3lTLLgGFSB6vF1DH0txtqqiEGFd/95UXGfoTDc6OmGmJwZXeIWOFxGfdRDs+NmmqIQcXTArJypU+p8JWUmmqIyWUqWkmlIGqqIcbfTJQqPC7jTuXw3Kiphhj/QFeq8LjUVEoR8s00Lr5upppqiMH50phY4THBHK2Hs3lRUw0xqNxaR2UnFBh7OofnRk01xFTMRNcXY9NEUA7PjZpqiMnztnWYw69XXgQ11RCTtlJxXOj+zuDw3KiphphKrV4VKzwmdH9ncnhu1FRDjF8CSKrwmNRUSiHS18GcErq/wguBqamGmKzlqSPBHGdzeG7UVEMMveZMrPA22U9weG7UVENMYCbkFyDFZexqDs+NmmqICdLeqhVXD+s0qamGGHotrFjhbbKf4vDcqKmGmKBa31+s8DY11FRKfoKMl0a21MOb09VUQ0y51tgXFfxiR4XHFVtXMy9qqiGGlh/EOVO2qUJ3HofnRk01xKBiF6ElylzwAl3k+RyeGzXVENM0VdoLgpqCqfz7XIqgphpiaEkddH+pL3wkBV1erC2hphpi6A0MqNxNYqWzejEVQRMmpPJaMvbZaKF8ZRuCVpmDqZ4TK52FFudCDu8JeswjlRsJ3euD80bt6zhc2dqh15ChRclcVxymWsPh04LMKZUfCS3ifeWw8bscrmytlKqNv+xqqtB+hsP7AlrGy6XttGTcd+YsPXo+hytbGyVj34nu5xmxclloYT7L4X0FZXd7i+htux7y/p04XNlaYFOJr+yPhPSBvvsO3d6N0nYjwVxfHxnZvB2HK7OdUs29A5X6tFSZU7IXc3huCrcwi9wO2M4t8vZZxl3H0cpsplStvx0t0VNiJU6psKmaI0rtLUXNVTpwIkDLlPk621LYuIXDldkIKpDetP5LqfJaMu4SDs9N+zDl4uai9+zB7Pe07UdCNBGWw5XZRFCb2Afd3y+kSmvJ2Es5PDfy2Pfi5po75l6D7cvrpZOM/S6HKrOFoGr3DkKbbarQXcbhucmeUFHcXIGpvwH7+WO5PLd5t2XLduRQZaYph4290M1slCqqJWM/x+G5yTlLpxdzpa78N7dafwuHKTNJORzfC5X7c6mSWjLucg7PTT5TRcpvLt9iGfugXI7bXNSkygCg1/qjUn8mVdCU7Oc5PDeyqRqJv5Pqbq5upsJFx1oOVWaKctXtiZYo85VnqMQvcHhu0lsqC/Vurm6mIiH9UA5XZgJ+G9X/SpUTCd/+PpoqkkW5jexzOcFceUzVyzmg0mfQUv2PWDksmOoKDi0MDHCVVGZLBl2vcT8S01qaMle+lsrd4DeuzByopNOlyomES/kvcmjP9MtcFWPfqqbaSshqrVBJV3LYtOmLuUz2lDI11SyBxi9JFUQiI3BY3+hmLqQ/AnN8X0rrJjXVLKJk7KulSiKhkgu9nNufqOeY2ZzDXFfBJPdKaWlSU81CUJGPS5VFymuutqu/PpiLrlLzmktNNUtBxXxJqrBI3cwl3lKYprmCamP/0uiK3bFvd0jpkVDG1VycMtsojx39SlRQ5r2kNHNl3qfqYq5dljR2Rdz3OvL5vHYVh9EsnY9g++1jwYx9AnofhyizlUroDmurOEFJc3W/+QmlmItNdVdHPIsma3BoC7p/RWvCzzXjr+WPlK2BcmiPkCo5rshcuUwVKWGubqYi0QhRDle2BXKZK3T/LX2eKTZXHlNR1+d3Rtm2yGOunmTcJfiZaaogtLfzbijbIgMzV7buohaNd0HZVilsLnR3hc692qWmGiZymyt2gt6DudRUwwi/92ZDwgxTit1ziihgLjXVMLMgHJ8DA53C09t/Ehh7K1qp1aVw/E0c0kHFNN6VdQUZGHflTouP3IXDFaUQ2wWmcQYZkabnw0yPonv9SsXYwzldURRFURRFURRFURRFURRlQIyM/D97bFg18kq98wAAAABJRU5ErkJggg==;" vertex="1" parent="1">
          <mxGeometry x="610" y="479" width="50" height="50" as="geometry" />
        </mxCell>
        <mxCell id="cABMR51wjXBZgp-4YjK6-34" value="" style="endArrow=classic;html=1;rounded=0;exitX=0.5;exitY=1;exitDx=0;exitDy=0;strokeWidth=2;entryX=0.629;entryY=0;entryDx=0;entryDy=0;entryPerimeter=0;" edge="1" parent="1" target="csfzGqKFnjeh-MCSGnIr-1">
          <mxGeometry width="50" height="50" relative="1" as="geometry">
            <mxPoint x="784" y="256.25" as="sourcePoint" />
            <mxPoint x="786" y="546.25" as="targetPoint" />
          </mxGeometry>
        </mxCell>
        <mxCell id="cABMR51wjXBZgp-4YjK6-35" value="&lt;font style=&quot;font-size: 18px;&quot;&gt;Stores via Hyperledger Aries&lt;/font&gt;" style="text;html=1;strokeColor=none;fillColor=none;align=center;verticalAlign=middle;whiteSpace=wrap;rounded=0;rotation=0;" vertex="1" parent="1">
          <mxGeometry x="780" y="364" width="120" height="30" as="geometry" />
        </mxCell>
        <mxCell id="cABMR51wjXBZgp-4YjK6-36" value="" style="html=1;verticalLabelPosition=bottom;align=center;labelBackgroundColor=#ffffff;verticalAlign=top;strokeWidth=2;strokeColor=#000000;shadow=0;dashed=0;shape=mxgraph.ios7.icons.document;fillColor=#CCCCCC;" vertex="1" parent="1">
          <mxGeometry x="869" y="443" width="100" height="90" as="geometry" />
        </mxCell>
        <mxCell id="cABMR51wjXBZgp-4YjK6-37" value="&lt;b&gt;&lt;font style=&quot;font-size: 18px;&quot;&gt;DID Doc&lt;br&gt;&lt;/font&gt;&lt;/b&gt;" style="text;html=1;strokeColor=none;fillColor=none;align=center;verticalAlign=middle;whiteSpace=wrap;rounded=0;" vertex="1" parent="1">
          <mxGeometry x="879" y="468" width="60" height="30" as="geometry" />
        </mxCell>
        <mxCell id="cABMR51wjXBZgp-4YjK6-38" value="" style="endArrow=none;dashed=1;html=1;dashPattern=1 3;strokeWidth=2;rounded=0;entryX=-0.02;entryY=0.5;entryDx=0;entryDy=0;entryPerimeter=0;" edge="1" parent="1" target="cABMR51wjXBZgp-4YjK6-36">
          <mxGeometry width="50" height="50" relative="1" as="geometry">
            <mxPoint x="789" y="460" as="sourcePoint" />
            <mxPoint x="909" y="360" as="targetPoint" />
          </mxGeometry>
        </mxCell>
        <mxCell id="cABMR51wjXBZgp-4YjK6-40" value="" style="shape=image;verticalLabelPosition=bottom;labelBackgroundColor=default;verticalAlign=top;aspect=fixed;imageAspect=0;image=data:image/png,iVBORw0KGgoAAAANSUhEUgAAAJYAAACWCAYAAAA8AXHiAAAAAXNSR0IArs4c6QAAAARnQU1BAACxjwv8YQUAAAAJcEhZcwAAFxEAABcRAcom8z8AABNBSURBVHhe7Z0LmCVFdcc7JlGSGKOJ0ehnoqJJ9DMGEDSJCIsmhpXduVU97JogBiMPzYvEqKiRVXzgKyCS+AioYZEVZJeZru7ZZQ1iJAbk823ECEo0gqCgJlEUouADz7+6em7f7lPd1T23d2b3nt/3/b97t+tU3d6uM9XV1VWnIkEQBEEQBEEQBEEQBGF22L3+XlGi10VG/Ql9bomy+KkuRRB6YtTJpFuiVN9d0ZejTL3MWQkzS6J/KcqOfkyUjv6AdFC0GD/IpfhJ9XsrzlSX0ec5a2Em2KUfTc70fGpt3keV/z2PU/yIPj9ONqdH2fyhLmdOqt86Ydsko852uYR9FrRIRl/OOkCbjPo8fR6ft2pMepMW48e5MxD2KYw+mCrY1Cq8j4y+lT3eJKP+yZ2JsM9g1B95b3dTlfof0u2etI9EmX46fT+Vzud8Op+r6NjXbB6jP0yf2yjt5ZT2DLpFP8KdubBmQUWyFT2ITiXnmWeO99FW6gce7P4Xwpoi1VsqlRUg9QP+eJNU/mmUjhbn1tfTVyS6fVOfTlgjpPEfM5XESP0rfZ4SLY42RdncA23eCzfcj25HjyZHOYFuU5fU83g0jGPlkifLNUA6OoQc5k62gpaldlNlHWHtt2/6GTucgMHOVJ9Jn8+IluYfZdPAwvz+UaLOrZdR0ZCOBRmV0f/t591ZCXucVC/VKqUso15q7RbmyJnQcWZsIKNvIwd8c/Tx5/y0tU/Qf1LfYW2hoR0r1zXRtvX3secj7EHaKjbRZ1k7o17BprPC+NVog813ydxvU96bWLswx/oUOey76HML3X7pdk234ET/HeU9j46RI7N5JmXUoj0XYQ9i9AfYyoAyqsDLN/8CVczVbHq7zrC/kc4fzqS1OdYV0ZI62uYHOzbfk2x/N1qMH0/ff9IdjaIl/TSyvbSSty6jXutyCIOzGB/AVoKV2mltUn1OPa2DEqr4vJzX1NI4xzL6s9ZZgFEH0rF30rFPTtik6od07GP0Sf240W9a28X4KXTsK5N2VY0Ot7bCwBj1Yr4CSEv6SZR+VO24cUMFoTLquuUWBu8RJ9OqjnWmtQN48izb+nUXlXOyzZPNPZycy397NGqXtRMGBrcbrgJS/S95uvoMkzYWWhf7tNjyysaof8jLq9wSC8fKqEXKqMWxNqMHU3l93k0uRbs2/wo51yMp/zeY9FxZvN7+jjAQp0X3YC88ZNTzbH+GS4OM/jY5wOQgJDrUnC2Eii4o3xILxyoT0l/yCWNotox4A5uey1gbYSDQMvAX/u5oYcNRVOl/waZZjX7HlTJJ0+ugXfP7OyvY5bdEOFaZVP/Nsn1fGf0cVxY/hIJ3oFes+ylrIwzAUvw49sJDeBLM1D+zaam6yJXAk+r/q+eBRpucBdm4W2LZsdAJ7/V6qCKjbo+2U18LfUQuHTJqzv2qMHUwzsRedH1Hnq7+g09XL7DpPox95cPlm3zcxy1xwrH0mybsyzLqi6SX2VdHSxvvT98x+8L/BGjU6/IyveNnb7bpwgAY9UT2okNb1+1HFZewaZgJ2kSqv1Sxz2XUic5iTDoauW9wAt4hU3IqvEKqgldIdtoNl8c9fBj1diYN5yIDpoOB93ncRYeMehh9emY6qM97+yiJVnweUtuM0NTzJGfU3zuLOql6G5snVV+36XgVxadfbdOFAUArwF50UqaPoUqpj2EVwoDl3dFPuJJy0KFH68LZp+ouZ8WzMP9QPh/kBkA5LtW/wech4Q/HqD9l01J1gytBGIRUXcteeLybw5gQl1YIY1joy6T6z+iTv+Usi25zTew4quG3Rgc5qzpGPZbPQ1qMH0LpJ7Jpqb7elSAMglFnMRedpO60c61S/ZJ6Wg/h1UwbaEX4vO92FnV8wxNG3+zS+eEPo66y6cJAYAUyd+EhU8xq0B9k08N1ii2nDd/DAoYPjDrMWY3JqD+XLzer58EYFkj1BZXjuaTzvgfwPZJDRh0ZLcWPZ9NChFczoTRNizbqu6RtpAOpzIOjNP5b1q5Qpl6Rl4nFF0x6+Z2kMBD5LFDu4sMxbrUj5naGqf73WnqTjHqj+4UwMD7ld4Qu+nK0w071OZJJy7UosSKGZ2I8iJ25cJ1tJQAGKevpk8o79Uda+64gSAhXZie5EX7/PLMf0v9zkX7rpZEsGxuIVL2WufC8iunJCT3i25mc+g1UeZdTGdfT94sp/cW2z1YdhuiKURdN/G4X4ekUJPFmNr0qvGUo3i0KUyJrGyJgZNQHqSKGXbuHxQ+pOp/9/WadY516x+Z70zneyKTnyphjaImFKYApx9WL20VF6zUkaXwsOVhAn0vdQP+feZcLDwH9ZrziFZewQlqn8AZoT7Reuzf9sm1NMIeq3AoZ/d/0uWAdvLy8Cy+1y+dYlWGOFTLqA64UoRdNT0t9tCdarwK8DYCzcSBKYKq+wJ5jmG5zJQm94BY1ZDH+mu+gv/5n2455V2HG5mrDnRcnLM6o/v8LLca/5UoTOmPUc9mLmuqbqK/yLEo/IkirDd4v9pGJn8f8350a3ksKLWA5FndRQ1ffrJWVLlgihhVA3Dn2krrTlSz0YjF+AFXI/9cubJhj3Wan/RZs3/SLdBuMo0y9mtIupTJuoVsqBibPpL/+Y+2KmSHBsjIE/+DPtZsQOkBYIQiBXbuwIY41Os6VED4cYNSLXI7hmEbrZUqrroWenHbaPcgpPlK5sJMXuq532LyIlmwUYilwNrwwQo8YDkOyotZLnetKEVYMphcb9R7+Qldk1PXRFc/az+YzLYtYvVJ3RTvnf92WsRIwgQ9z5RGkBKGS8DCCGRjFauuurZcsrBiILN5sl3qZpsgt1F+ytuqNfHqgjM5sOX1IRzGVgYFRvmzEc8Co+9LGn7VOlrW0XkZ/jpxKloENji/ulVEftelYms6ld1Wi/9yWFwpaSu+iCU7qi3YSIEj1q+j88X8Yq7Az9Idk1H2tnTAgKfOkmCufAWo88+OtKC+mOWfx2fR5Ov3bPwKOgdjittWGXS3UczS9WN3TeLuX0EbDYudkcReetDM+gPo1D2LTcn2IWqHJeU22ldEN/ZzRIc6yGf/axkCNnpzH9/IuLbvJ/ZIwCOgMcxcek+LuxhOkZ9U0lOgnuFImaZoRmgXMgcItk8vbRUZ9wpZl1AvZdCtPHAphCmDWJXvR9S023TtztGXhpz+C8jnOggdxrvy35lxGXUna0XqrxK3ZPgF7N0Q4zf2qMHUQ9Zjr5GKqCvC9uEX/pQk7As/me6+z4MHLcC5frvfXxsSSxiBt+cOHUSmTRlKX2XRhALB1CHfRx7cSPqQRNmFqwhfYDa1IExhb4vLh1opXUhz2oYHN84N8QHj013y6vsaVIEydxBPIA+NbIIv9QdgS/VfWpkrjpLs4dlZUdmX7OYAHAjYf/QH4wDwtPg+JHhYwXsemuTgPwpRJRw1r9OivHCBiMZu+rOdbu4J83tP3KzZjIVZDAXb5wgKNMr7+VaJPdRY8CHfE5zuJ0g5j06BzXVx6YUogJCR3oZdVijLctsDBPtJTfwXr+paPlwYkC1UXscKxigjNBbUoyU7oS/mwizCYPJB1Kjtyz6V/05UgTIX2sIwXOsscvHxO1VcZu26qhjOyjkXHi8jHwPewgCC4PtBqcnkgvObxDl+oa10JwopJY19HFi0KPm+2jlQleCMnj/DiuErhWHhJXdwSm+KfGv0We2sugykvvjCTRn/a2njjOGhZRDEV/E9HY5WXU1Xp9N5uQnmgDrCk15Ez5GNgy44FuVtivrtrOW9F9DRq1FvoOzbJXKynl4Ty8zJ9o+/dQgEIDE1xGgphQ/E27OZLnifJmqglytyTI4K9ledMgQnHIhW3RGNnpY6P9xGWue0+9j7U0h7HplvJ3oYrA8MC7IUtqS1wbRm74li9nSqPj5KMCDGZ3kUVl0fks4OwlRXK+fFJx8JOE+Nb4uRkxK7K9DPzcrDRAZOeqm/ZdKEnafyX/IUtKevgVFUwgQ+RjBHPwS4hiw9wKfjt4yjto7Xfg0DdseCU+YKNbO7QWlqoMrXDlpHq19fSChk3Tif0oHEjACe8pF0pu+OHRAvzh1Jr84dU3skk9IEQMIT/TQhwjgXhVpinIyaWf4cyTghQkuf1hYrMVR0/EwLJgmYIhEXcq3LJ6CDKewbdTi6jim/eS8cn4HMsCE+ABWFhK6+gFjNfG5ipFzHpYxX7+wgdQdBZ7oKW1XcFzbR2ugdNjgUZclw8RQI7LyzeQMeKeA4fpu9vI51od9oA2JsaO9pzZRUy6uvkgA+29kIHklGIU+W3iy7YYYDem2LWZctscaxCmCKDBwCsZayCaTGZ3ki6hs1bVbGHotAB/xL6sl7irMOBU2FBKl9eP9lyAx1rQuoG21ql6krSF+i7b65VXeURfiEQRKfjLmZZ2P6tK0M4FYRAaXayHpM2hBKZ1NedVJ9Uu5BVIeBaV7o71fcpz2dJSZTFr6O+jH/2BAYwkynE6moVXve4JWxCB9oeq6E+cayCnEp9hhz2mCg7+jFk+zCXc5LpREPuKfQJZV57d4w6gb+gE2qex8QR1lKF7VbaZ+n7zhjTXN5fOx4u6sjH0kr1ItXHVy4mpy3OOpxpOhXYteF+VKZng0xGxX6DADHZ8aLY+1qmJCznQtDeppfoQgtp3LTgIFefaMDTdqoCDBXky+C58sYyarvLUQdjVAh1iQBx+YDpFvo3dQMwtkXnLayQ5lUsTiP//HAfQzlVwZL+PXIufrmWIacrXuMIq4B3D76S+jxWD+1UZbDRACLFYI4W3iniDYBRv+pShT1OYm8BXIWXtbadSlhjIJoeX+FjFbtedUGcaoYJ2bzIxK901uGIU80wmAXJV3hZr3LW4YhTzTA2gCxb4WP1eZISp5ph8G6Lr/Cx2mIgcIhTzTB2MJGt8LJe46zDEaeaYRJ9DFPZVYlTCR0IWmncI26mONUMky+f4ip8rPLL2VDEqWaYTD+dqeyqXu+swxGnmmG8AcEm9AZnHY441QwTstt6Ea+8C+JUM4w/UnFJozOcdTjiVDOMjefEVvhYiT7TWYcjTjXDYNosX+FliVMJHfDHwRyrTyAwcaoZpjE8tZPRZznrcMSpZhhsc8ZXeFlvctbhiFPNMGns2wBpLKy764o41Qzj31VrrD5xmsSpZhhsC8tX+FiJ/kdnHY441QyT6I1MZVclTiV0AKty+QovqcfO6eJUM4xRR1Hl/qhS2ZPCAs2uiFPNMEv6aeQAzU6V6rc663DEqWaYLF5Pld8c8AJBWLsiTjXDLM6tpz4Tv0FQIcTZ7Io41QyDkDqmYcPHXM0ba3OIU80w2IEBGxDxlV6ou1MBLJjgyyv0vagIlC/sQyAMT6ruZCq8JHWus+5HW3hFo26MFjY+ylkLez3Yhqwtrjh2xZoGcE6u/EJGXRctbfw1Zy3stRj1+61Olep3OOvpkKptzG+UpD5BznV/Zy3sdWTxU8ixvstX7rLe6aynS/suoldFlz3155y1sNewSE7l27K/0NB736VqN/u7y1Lvszs9CHsJ6ejJdPu7g69MJ6POc9bhXPbMbi3M7vX3ot/5N/b3CxmVOWthTWPUEeRUt7OVWMjo7k6VaGWdpKtzGXVfaplatrOlcoU1TKLXUSV9h6+8ZW111uHAqYr8fZwL++xhm5HJ85gUVlcLa5B0dDi1RN9mK21Z6nxnHU7ZqQr1ca5EP4J+fzJeuil9T/WnnKWwZjDqsFanMvpdzjoczqkK9bstPpac66tsedDWdfs5S2HVWdJPogq7ja2osS5w1uE0OVWhfs7VEPlvdIizElaVxDrVt/hKcjJqm7MOJ8SpCnVxLtti6RtrZRS6QMa1Vp+FuUOpMr5Zq5yyjHq3sw6ni1MVCnGuNqfClmrCKmPUE6nP1Lbl2YXOOpw+TlWoybnanYo0Os5ZC6tCYnej+l++cpY1lFM19+U45wpyqh59QGHKJOq/mIopSV3kLLuTqu18mU6JvfV+qXa8rLJzhTiV0busrbCKIKYnVzmFjHqPs+zPtJxrp34CfRen2iswuqm1uthZrZypOFfbkjJxqrUB5i9xFWTVsHVsX9qcy+ibSZ9j09okTrWGyOYezlZSrm6bc6OjbgJWNrc5l01X1/JpHolTrUGMvpWtrFxhzlV++puGc+VPqWHOJU61Rkn1Qq2yJtXsXNyQwkqdK9Mbo4X5/cnmaja9kNGXuNKENQc2tzYtY0k+52oap2pzrmzugWT36Vq+XKc4Kzq/+JV0fpNzwYz+BpX/XGchrFlSffxExfGadK6QwU+fc8GpjP4YmwfCYo0qdvxqtInyPtIdEfYKUn1SrYLryp0rxKkKVZ2rzakgzBAV9iFCnMuo/2SPN6lwrjCn6r5ZuLAXENZyTWpy1iavRG9tdapUf8idhbBPMpRzNQlOhxZN2Mfp6ly43XXpe5UlTjVjhDpXuYPe1bnEqWYU7Htj1A2sU0BJacypINS5xKlmnB2b703OdXpkl7err5GujDJ1Nh070FnUQYgjo5ueIC+OFuMHOGtB6ABiKKT6DHLAK8nJ7iB9hb7vJJ3gLARBEARBEARBEARBEARBEAYiin4MpUO9oocpzTUAAAAASUVORK5CYII=;" vertex="1" parent="1">
          <mxGeometry x="912.5" y="482" width="50" height="50" as="geometry" />
        </mxCell>
        <mxCell id="cABMR51wjXBZgp-4YjK6-42" value="" style="endArrow=classic;html=1;rounded=0;exitX=0.706;exitY=1.017;exitDx=0;exitDy=0;strokeWidth=2;entryX=0.955;entryY=-0.033;entryDx=0;entryDy=0;entryPerimeter=0;exitPerimeter=0;" edge="1" parent="1" source="csfzGqKFnjeh-MCSGnIr-12" target="csfzGqKFnjeh-MCSGnIr-1">
          <mxGeometry width="50" height="50" relative="1" as="geometry">
            <mxPoint x="794" y="266.25" as="sourcePoint" />
            <mxPoint x="794" y="570" as="targetPoint" />
          </mxGeometry>
        </mxCell>
        <mxCell id="cABMR51wjXBZgp-4YjK6-43" value="&lt;font style=&quot;font-size: 18px;&quot;&gt;DID Doc Lookup&lt;br&gt;&lt;/font&gt;" style="text;html=1;strokeColor=none;fillColor=none;align=center;verticalAlign=middle;whiteSpace=wrap;rounded=0;" vertex="1" parent="1">
          <mxGeometry x="1150" y="473" width="95" height="30" as="geometry" />
        </mxCell>
        <mxCell id="cABMR51wjXBZgp-4YjK6-44" value="" style="endArrow=classic;html=1;rounded=0;strokeWidth=2;exitX=0.891;exitY=0.017;exitDx=0;exitDy=0;exitPerimeter=0;" edge="1" parent="1" source="csfzGqKFnjeh-MCSGnIr-1">
          <mxGeometry width="50" height="50" relative="1" as="geometry">
            <mxPoint x="1080" y="549" as="sourcePoint" />
            <mxPoint x="1078" y="440" as="targetPoint" />
          </mxGeometry>
        </mxCell>
        <mxCell id="cABMR51wjXBZgp-4YjK6-46" value="" style="shape=image;verticalLabelPosition=bottom;labelBackgroundColor=default;verticalAlign=top;aspect=fixed;imageAspect=0;image=data:image/png,iVBORw0KGgoAAAANSUhEUgAAAJYAAACWCAYAAAA8AXHiAAAAAXNSR0IArs4c6QAAAARnQU1BAACxjwv8YQUAAAAJcEhZcwAAFxEAABcRAcom8z8AABNBSURBVHhe7Z0LmCVFdcc7JlGSGKOJ0ehnoqJJ9DMGEDSJCIsmhpXduVU97JogBiMPzYvEqKiRVXzgKyCS+AioYZEVZJeZru7ZZQ1iJAbk823ECEo0gqCgJlEUouADz7+6em7f7lPd1T23d2b3nt/3/b97t+tU3d6uM9XV1VWnIkEQBEEQBEEQBEEQBGF22L3+XlGi10VG/Ql9bomy+KkuRRB6YtTJpFuiVN9d0ZejTL3MWQkzS6J/KcqOfkyUjv6AdFC0GD/IpfhJ9XsrzlSX0ec5a2Em2KUfTc70fGpt3keV/z2PU/yIPj9ONqdH2fyhLmdOqt86Ydsko852uYR9FrRIRl/OOkCbjPo8fR6ft2pMepMW48e5MxD2KYw+mCrY1Cq8j4y+lT3eJKP+yZ2JsM9g1B95b3dTlfof0u2etI9EmX46fT+Vzud8Op+r6NjXbB6jP0yf2yjt5ZT2DLpFP8KdubBmQUWyFT2ITiXnmWeO99FW6gce7P4Xwpoi1VsqlRUg9QP+eJNU/mmUjhbn1tfTVyS6fVOfTlgjpPEfM5XESP0rfZ4SLY42RdncA23eCzfcj25HjyZHOYFuU5fU83g0jGPlkifLNUA6OoQc5k62gpaldlNlHWHtt2/6GTucgMHOVJ9Jn8+IluYfZdPAwvz+UaLOrZdR0ZCOBRmV0f/t591ZCXucVC/VKqUso15q7RbmyJnQcWZsIKNvIwd8c/Tx5/y0tU/Qf1LfYW2hoR0r1zXRtvX3secj7EHaKjbRZ1k7o17BprPC+NVog813ydxvU96bWLswx/oUOey76HML3X7pdk234ET/HeU9j46RI7N5JmXUoj0XYQ9i9AfYyoAyqsDLN/8CVczVbHq7zrC/kc4fzqS1OdYV0ZI62uYHOzbfk2x/N1qMH0/ff9IdjaIl/TSyvbSSty6jXutyCIOzGB/AVoKV2mltUn1OPa2DEqr4vJzX1NI4xzL6s9ZZgFEH0rF30rFPTtik6od07GP0Sf240W9a28X4KXTsK5N2VY0Ot7bCwBj1Yr4CSEv6SZR+VO24cUMFoTLquuUWBu8RJ9OqjnWmtQN48izb+nUXlXOyzZPNPZycy397NGqXtRMGBrcbrgJS/S95uvoMkzYWWhf7tNjyysaof8jLq9wSC8fKqEXKqMWxNqMHU3l93k0uRbs2/wo51yMp/zeY9FxZvN7+jjAQp0X3YC88ZNTzbH+GS4OM/jY5wOQgJDrUnC2Eii4o3xILxyoT0l/yCWNotox4A5uey1gbYSDQMvAX/u5oYcNRVOl/waZZjX7HlTJJ0+ugXfP7OyvY5bdEOFaZVP/Nsn1fGf0cVxY/hIJ3oFes+ylrIwzAUvw49sJDeBLM1D+zaam6yJXAk+r/q+eBRpucBdm4W2LZsdAJ7/V6qCKjbo+2U18LfUQuHTJqzv2qMHUwzsRedH1Hnq7+g09XL7DpPox95cPlm3zcxy1xwrH0mybsyzLqi6SX2VdHSxvvT98x+8L/BGjU6/IyveNnb7bpwgAY9UT2okNb1+1HFZewaZgJ2kSqv1Sxz2XUic5iTDoauW9wAt4hU3IqvEKqgldIdtoNl8c9fBj1diYN5yIDpoOB93ncRYeMehh9emY6qM97+yiJVnweUtuM0NTzJGfU3zuLOql6G5snVV+36XgVxadfbdOFAUArwF50UqaPoUqpj2EVwoDl3dFPuJJy0KFH68LZp+ouZ8WzMP9QPh/kBkA5LtW/wech4Q/HqD9l01J1gytBGIRUXcteeLybw5gQl1YIY1joy6T6z+iTv+Usi25zTew4quG3Rgc5qzpGPZbPQ1qMH0LpJ7Jpqb7elSAMglFnMRedpO60c61S/ZJ6Wg/h1UwbaEX4vO92FnV8wxNG3+zS+eEPo66y6cJAYAUyd+EhU8xq0B9k08N1ii2nDd/DAoYPjDrMWY3JqD+XLzer58EYFkj1BZXjuaTzvgfwPZJDRh0ZLcWPZ9NChFczoTRNizbqu6RtpAOpzIOjNP5b1q5Qpl6Rl4nFF0x6+Z2kMBD5LFDu4sMxbrUj5naGqf73WnqTjHqj+4UwMD7ld4Qu+nK0w071OZJJy7UosSKGZ2I8iJ25cJ1tJQAGKevpk8o79Uda+64gSAhXZie5EX7/PLMf0v9zkX7rpZEsGxuIVL2WufC8iunJCT3i25mc+g1UeZdTGdfT94sp/cW2z1YdhuiKURdN/G4X4ekUJPFmNr0qvGUo3i0KUyJrGyJgZNQHqSKGXbuHxQ+pOp/9/WadY516x+Z70zneyKTnyphjaImFKYApx9WL20VF6zUkaXwsOVhAn0vdQP+feZcLDwH9ZrziFZewQlqn8AZoT7Reuzf9sm1NMIeq3AoZ/d/0uWAdvLy8Cy+1y+dYlWGOFTLqA64UoRdNT0t9tCdarwK8DYCzcSBKYKq+wJ5jmG5zJQm94BY1ZDH+mu+gv/5n2455V2HG5mrDnRcnLM6o/v8LLca/5UoTOmPUc9mLmuqbqK/yLEo/IkirDd4v9pGJn8f8350a3ksKLWA5FndRQ1ffrJWVLlgihhVA3Dn2krrTlSz0YjF+AFXI/9cubJhj3Wan/RZs3/SLdBuMo0y9mtIupTJuoVsqBibPpL/+Y+2KmSHBsjIE/+DPtZsQOkBYIQiBXbuwIY41Os6VED4cYNSLXI7hmEbrZUqrroWenHbaPcgpPlK5sJMXuq532LyIlmwUYilwNrwwQo8YDkOyotZLnetKEVYMphcb9R7+Qldk1PXRFc/az+YzLYtYvVJ3RTvnf92WsRIwgQ9z5RGkBKGS8DCCGRjFauuurZcsrBiILN5sl3qZpsgt1F+ytuqNfHqgjM5sOX1IRzGVgYFRvmzEc8Co+9LGn7VOlrW0XkZ/jpxKloENji/ulVEftelYms6ld1Wi/9yWFwpaSu+iCU7qi3YSIEj1q+j88X8Yq7Az9Idk1H2tnTAgKfOkmCufAWo88+OtKC+mOWfx2fR5Ov3bPwKOgdjittWGXS3UczS9WN3TeLuX0EbDYudkcReetDM+gPo1D2LTcn2IWqHJeU22ldEN/ZzRIc6yGf/axkCNnpzH9/IuLbvJ/ZIwCOgMcxcek+LuxhOkZ9U0lOgnuFImaZoRmgXMgcItk8vbRUZ9wpZl1AvZdCtPHAphCmDWJXvR9S023TtztGXhpz+C8jnOggdxrvy35lxGXUna0XqrxK3ZPgF7N0Q4zf2qMHUQ9Zjr5GKqCvC9uEX/pQk7As/me6+z4MHLcC5frvfXxsSSxiBt+cOHUSmTRlKX2XRhALB1CHfRx7cSPqQRNmFqwhfYDa1IExhb4vLh1opXUhz2oYHN84N8QHj013y6vsaVIEydxBPIA+NbIIv9QdgS/VfWpkrjpLs4dlZUdmX7OYAHAjYf/QH4wDwtPg+JHhYwXsemuTgPwpRJRw1r9OivHCBiMZu+rOdbu4J83tP3KzZjIVZDAXb5wgKNMr7+VaJPdRY8CHfE5zuJ0g5j06BzXVx6YUogJCR3oZdVijLctsDBPtJTfwXr+paPlwYkC1UXscKxigjNBbUoyU7oS/mwizCYPJB1Kjtyz6V/05UgTIX2sIwXOsscvHxO1VcZu26qhjOyjkXHi8jHwPewgCC4PtBqcnkgvObxDl+oa10JwopJY19HFi0KPm+2jlQleCMnj/DiuErhWHhJXdwSm+KfGv0We2sugykvvjCTRn/a2njjOGhZRDEV/E9HY5WXU1Xp9N5uQnmgDrCk15Ez5GNgy44FuVtivrtrOW9F9DRq1FvoOzbJXKynl4Ty8zJ9o+/dQgEIDE1xGgphQ/E27OZLnifJmqglytyTI4K9ledMgQnHIhW3RGNnpY6P9xGWue0+9j7U0h7HplvJ3oYrA8MC7IUtqS1wbRm74li9nSqPj5KMCDGZ3kUVl0fks4OwlRXK+fFJx8JOE+Nb4uRkxK7K9DPzcrDRAZOeqm/ZdKEnafyX/IUtKevgVFUwgQ+RjBHPwS4hiw9wKfjt4yjto7Xfg0DdseCU+YKNbO7QWlqoMrXDlpHq19fSChk3Tif0oHEjACe8pF0pu+OHRAvzh1Jr84dU3skk9IEQMIT/TQhwjgXhVpinIyaWf4cyTghQkuf1hYrMVR0/EwLJgmYIhEXcq3LJ6CDKewbdTi6jim/eS8cn4HMsCE+ABWFhK6+gFjNfG5ipFzHpYxX7+wgdQdBZ7oKW1XcFzbR2ugdNjgUZclw8RQI7LyzeQMeKeA4fpu9vI51od9oA2JsaO9pzZRUy6uvkgA+29kIHklGIU+W3iy7YYYDem2LWZctscaxCmCKDBwCsZayCaTGZ3ki6hs1bVbGHotAB/xL6sl7irMOBU2FBKl9eP9lyAx1rQuoG21ql6krSF+i7b65VXeURfiEQRKfjLmZZ2P6tK0M4FYRAaXayHpM2hBKZ1NedVJ9Uu5BVIeBaV7o71fcpz2dJSZTFr6O+jH/2BAYwkynE6moVXve4JWxCB9oeq6E+cayCnEp9hhz2mCg7+jFk+zCXc5LpREPuKfQJZV57d4w6gb+gE2qex8QR1lKF7VbaZ+n7zhjTXN5fOx4u6sjH0kr1ItXHVy4mpy3OOpxpOhXYteF+VKZng0xGxX6DADHZ8aLY+1qmJCznQtDeppfoQgtp3LTgIFefaMDTdqoCDBXky+C58sYyarvLUQdjVAh1iQBx+YDpFvo3dQMwtkXnLayQ5lUsTiP//HAfQzlVwZL+PXIufrmWIacrXuMIq4B3D76S+jxWD+1UZbDRACLFYI4W3iniDYBRv+pShT1OYm8BXIWXtbadSlhjIJoeX+FjFbtedUGcaoYJ2bzIxK901uGIU80wmAXJV3hZr3LW4YhTzTA2gCxb4WP1eZISp5ph8G6Lr/Cx2mIgcIhTzTB2MJGt8LJe46zDEaeaYRJ9DFPZVYlTCR0IWmncI26mONUMky+f4ip8rPLL2VDEqWaYTD+dqeyqXu+swxGnmmG8AcEm9AZnHY441QwTstt6Ea+8C+JUM4w/UnFJozOcdTjiVDOMjefEVvhYiT7TWYcjTjXDYNosX+FliVMJHfDHwRyrTyAwcaoZpjE8tZPRZznrcMSpZhhsc8ZXeFlvctbhiFPNMGns2wBpLKy764o41Qzj31VrrD5xmsSpZhhsC8tX+FiJ/kdnHY441QyT6I1MZVclTiV0AKty+QovqcfO6eJUM4xRR1Hl/qhS2ZPCAs2uiFPNMEv6aeQAzU6V6rc663DEqWaYLF5Pld8c8AJBWLsiTjXDLM6tpz4Tv0FQIcTZ7Io41QyDkDqmYcPHXM0ba3OIU80w2IEBGxDxlV6ou1MBLJjgyyv0vagIlC/sQyAMT6ruZCq8JHWus+5HW3hFo26MFjY+ylkLez3Yhqwtrjh2xZoGcE6u/EJGXRctbfw1Zy3stRj1+61Olep3OOvpkKptzG+UpD5BznV/Zy3sdWTxU8ixvstX7rLe6aynS/suoldFlz3155y1sNewSE7l27K/0NB736VqN/u7y1Lvszs9CHsJ6ejJdPu7g69MJ6POc9bhXPbMbi3M7vX3ot/5N/b3CxmVOWthTWPUEeRUt7OVWMjo7k6VaGWdpKtzGXVfaplatrOlcoU1TKLXUSV9h6+8ZW111uHAqYr8fZwL++xhm5HJ85gUVlcLa5B0dDi1RN9mK21Z6nxnHU7ZqQr1ca5EP4J+fzJeuil9T/WnnKWwZjDqsFanMvpdzjoczqkK9bstPpac66tsedDWdfs5S2HVWdJPogq7ja2osS5w1uE0OVWhfs7VEPlvdIizElaVxDrVt/hKcjJqm7MOJ8SpCnVxLtti6RtrZRS6QMa1Vp+FuUOpMr5Zq5yyjHq3sw6ni1MVCnGuNqfClmrCKmPUE6nP1Lbl2YXOOpw+TlWoybnanYo0Os5ZC6tCYnej+l++cpY1lFM19+U45wpyqh59QGHKJOq/mIopSV3kLLuTqu18mU6JvfV+qXa8rLJzhTiV0busrbCKIKYnVzmFjHqPs+zPtJxrp34CfRen2iswuqm1uthZrZypOFfbkjJxqrUB5i9xFWTVsHVsX9qcy+ibSZ9j09okTrWGyOYezlZSrm6bc6OjbgJWNrc5l01X1/JpHolTrUGMvpWtrFxhzlV++puGc+VPqWHOJU61Rkn1Qq2yJtXsXNyQwkqdK9Mbo4X5/cnmaja9kNGXuNKENQc2tzYtY0k+52oap2pzrmzugWT36Vq+XKc4Kzq/+JV0fpNzwYz+BpX/XGchrFlSffxExfGadK6QwU+fc8GpjP4YmwfCYo0qdvxqtInyPtIdEfYKUn1SrYLryp0rxKkKVZ2rzakgzBAV9iFCnMuo/2SPN6lwrjCn6r5ZuLAXENZyTWpy1iavRG9tdapUf8idhbBPMpRzNQlOhxZN2Mfp6ly43XXpe5UlTjVjhDpXuYPe1bnEqWYU7Htj1A2sU0BJacypINS5xKlmnB2b703OdXpkl7err5GujDJ1Nh070FnUQYgjo5ueIC+OFuMHOGtB6ABiKKT6DHLAK8nJ7iB9hb7vJJ3gLARBEARBEARBEARBEARBEAYiin4MpUO9oocpzTUAAAAASUVORK5CYII=;" vertex="1" parent="1">
          <mxGeometry x="1030" y="453" width="50" height="50" as="geometry" />
        </mxCell>
        <mxCell id="cABMR51wjXBZgp-4YjK6-47" value="" style="shape=image;verticalLabelPosition=bottom;labelBackgroundColor=default;verticalAlign=top;aspect=fixed;imageAspect=0;image=data:image/png,iVBORw0KGgoAAAANSUhEUgAAAJYAAACWCAYAAAA8AXHiAAAAAXNSR0IArs4c6QAAAARnQU1BAACxjwv8YQUAAAAJcEhZcwAAFxEAABcRAcom8z8AABUCSURBVHhe7Z0NmCRFeccXNUDCcdMzdwcxjwZFk8hjjMYYTQhwamK8AAFvp3r2DpBLIJzcTtXsgR6gCIsCguHDUz6EU75EEYJIQMRENJDw8RBRjEcOPCJ6fAkKiZ6CwAlc/m/N27M9PW/3dM/O3O7dvL/n+T+7O/VWdW/Xf6r6o6p6RFEURVEURVEURVEURRkeFrkdAuMWQu8NjP1wxTTexSmK0hswk4MeK4duc1z47KEgbJzAYcqwsvN76vPK1fHXV2r2r0pV98fzF698OSelgtbpa0lDCbqYw5VhoDI2sUfZuKNhjq+XQ/usYAjSi0j7dtnYU8o1+xec1YO08xKx6TJuNWdTtlWoRUI3dZNogC5CvvWV0B1GZUjpWSrV6m/mXVC2JUph40/QclwrVXphGfu4+HmGYMpP864o2wowwlhGd9c3BaF7Ett5Skwz7j/xs4afx2N/LsXP2/D3T6Ang9DeCdNfjs9ODEz9oLlj7jW868psBRV1fFS5gxaZplS1o1JaYRl3CbWy/G8oswm6pyRWWpaMe178PFPW/yzV7HuQf1Fn+jSE7pvO6fhfUmaasmksESsqKeO+ia5pVcmMm12WNHalvKWDVpQrYyv2qBh7OMx5tZhP0ECMFclYvbKcaeZW629BRTwnVhAL50M3lqr1t1P8K8xRv0m3E9CVOXx+ZmAaB80bta/zhYHS6MrdYbALpXLiGqixSMZdN++AVTvzbilbGpjqerFiWDhZ/pCPIzOF7k4phgQzbURlnjOyfPlvUDydP8F8v5RiSQM3FoTtr60c7ObS/ihbkK4Va9zZPi50J3WkpQiVuR4m24/yBdUVfwRjPizF5TKWcd/Fz8v8+Z+pL6kYZ1D+B3GedjHK3dgRL+sa2hdlC4LW6t+EivBqVuCxJVTqHVJ6NyHfGbSNoDaxj5TexVg3V2qNqt9JIpzcvlJzfzav1vjTkTB8KX86Uq7av8F2virkT8h+jLMogyao2TfKleD1FR8TuguEtPxCxVM5MNCpyTTJWDDJuihPKRx/E8z9WZji7ngMvgwv4OddSLtwnpn4Ax9r7Dvx96NtcQkFtfF9KFYZMDjYxyYP/pQae5VrjX0Tn8V+zycY876ohYFBvh1PSxqLLgT8jgGYZ1U8NlXGbQpM3VEemOvVMGZq9wjj3eALVwYLDvbNyYNPQgX8C6Wjku6R0iNR6wIz3Iif2Y9sjPukLy/RJU4Zy95NLQ7FzFtS/x1sv/izSWOvXxCO//ZcM/5alPmEGEPC9mg7yqCYnHyJeOChknEr6XxGSiOh4n+RvAmJz3A+Jsej0p/gsLYuMTIWJ3lQTo7zJVkw+NXNMux+UrqXcdf6DSmDgVoG8cBD80fH9w1MY1xKI1WqE2/jYtqAKVIfB9G9LQ5rdYlkLP7Igy5tIpmvuBrLqSxqweR0++zIwsmX+Q0q/adUW/lm+cCT/JXgRVIazHMFFyGCFuH/pHx0m4BDWl1i3Fh0Eo68PTweahf2+yk61/LniEI6Kai5v+XNKv0mrbvAOdPTlI5K/i8pHS3B+30BKSDfN8V8ict9xJ0aNxbSPyHnI9kHgur4CfToaM7S5fOxD2MweOoVINJOozLT7p9h2+f4jSr9p1x1e4oHHdpt2bIdUXlfltKg87gIEeT7kZCHKvMfOKQFur4D+NcMQ7oH6BESh7WgR0hIezIR6wVj8cWHWyOlQ3rDdFCURlfsLhxwr9LYxKvQookjHVBZ69POUYKqO1DKQ+o2IhQx4pUctvePHNJBULXnS3lg7p/69NB+SEpHmXf4ApT+4x8kCwe9Kbu08x7WlGC6u0dGNm/HRXkq1fG3Ie2BZKyXcZs4TCQYHd9NzAdFN0Al5o/Vf1/KQ6IvTim0fyelQRu4CGUQwCD3CgeddBndExI+bwl51+GbfxpOko/M6HKaQjfHmxTJ2hbNAOKwDtCVvkHKQ6osdq+g7ldKwxfnfi5CGQQwxNnigTf2ORprhQo4TkwvKHo0w5tMBXEbkvm8qvbzHNJBYBri7QmY/pFmunz7A5/f5gtQBgPNQJYOPIlMRzEw2b9L6bll7Cq/sS4gTrxYgEmeCsbs3hzWIhij8zn7opQHZV1PMfj5OTFdT94HT+olOalWfzeNJhDTcgjmvIk30xUYKHVYNMp5Bt3a5dTy0bj2Stg4SoqL6SQqEz9p8kVHevyZpDIg6AGudPBJqOzH6Y65H2Eauv9IpmcJec/iTeRiztKj56MFEo1QRDDhQ+VweYm+FFI6qWLqulbEoKH7QUHYEO8H0WgGGp0QzX5B63aCHDclGGpduTbxbl94QWCK90plFlF0hx/dYMo4Mz/k5hq6FaHTxgYEDvLHOg+8LKoIyuMv8U19CQz3cerqUMb9+HklYo7llqDtNkRRUNYVyW3nFfKuoTIqxoZSelL0lCF6tqj0CaoE6WBnCifyg567N++Aw3bG+dSl4vYzBJNcQPfWFoTjc9BqPijFpIlaYt68Mh1gqvQhLjkUtV6DBPt4cM5zrg00aYOz9T7iter25CKUXkGlZQ7hzaUt0HrNMW4BrZmFFuzatlbIuB/i7y+RwamF4/ARP74rvo9FhHMyLkbpBTqxFg9sj9oSrVcE3aEns/Gf7SxyO8AcP5D2MY9g1I1cktIL+LbzCM728et0Ilsy9b+nE/OiQqX4qV4zibRfomo0OWPq/25TrfGHXJxSFHyr3ycdVLQ8DwfV+jKa7ZxHXNyMQa1XL8KXZ6X0/5OynksqXaCpVdJBzSucn82KmS5+PmHo7pP2sScZ9xwXrfTCTouP3AVd16/Eg9tFdB5Cw365qJG55qhKyTQWI+1kpH0VpnuMToJR4WfSVR3NmOHQwRCGL4UhVif3sxehxb6TS1V6BSYovlwRhHyHchF8O0B+FtcmY4/hLAOjH61X26xrpUcmJ18CY9CKeeJBloRv9Gcoq18tOXSXJdOzhG3dRGs4+G0PCrH1aq7D1U34wlzIpSjTZuHky2CWL0oHulP2fhoHT9lQCZmTWFNl3KadRxu/57c9DWgAH42VR5knkSHoYiS+nkN765XDWDqxYjDQczVU0EVQ1tT0gykWMWdJ6bll3HV+oz2Aq7nFyP9DsVySsS/AUBe8fP/lvzXVeqUbC//L93Ua2BYAlSKue4UK+Balo6KylxvKKZh0hd9gTnZbNrkj9kGeNCGKpoq5Aykv9vmjcoz/vzaWDpwI/EaUwYEDLV8p8ghQpKeNj6dK+hUMczauGFeXTeMU5Em9Aw4DPx11W92g2UJZZWUJ++Nn92R397q00UDhOXrCgUcF1ewb6XUmUhoJFXd7clwTtTJIS71Ko4GDHJoJTJU2tzGXSjX3Dj/oz1h5alloH+ZNKYOAT4Y7Djwq5IXmFWT6Ihs4R3srF9OGn7Gcejui+xgo6jLlvAVk3HeoLPz+gY40Fk1b8xtU+g+NupQOOir3MUrHN1scOYr0zImfMKS4gjKdZHOICK9zlXkTF+m3opx/6tpVGnsKXQGj2xNfiIByJnmzSr+hVY9TDvqDzXT5wS2dv/gCUkDFnynmM/ZrHCLiH4YL+Zqy30jeE4N5Uhdpw743Lz5C+89iemj/1Rei9B+0WCdKBx0V5rsSGEFc0giVtt4XkAJixIXd6ASfQ0TQhZ0j5kPXSo+kOKwNapmEeOoOn/fdeWgbUjr+h7VchNJvUCniQh4w1EWUnr0Im7W+kARZg+7o+SKH+SW++dcWMMHtUj6Y4EQO6YDGaUl5SHSxkDoOntd5UPpMJbSpc/ToW+6DwsntpfSWjDvaxzE07gkm+LUYC9FaDRxK3eynaYIG/+mBWcXzq2C0fjyHiNA9LCkfPj8iqNq95TS3OVqXXukTtCSkdKAj0QJpHErdU/YEB+OeoPMVGOUhMZ2F9LZJrGQsfO5XaI6AEdpXSY6UMaua3kAh5oHIVDwKQ0i3P+MilH6Qtu5BJFT4FzjUQw+fYZwfS7Hp6nykklzOiI2F7TVXPibwWcooT1rlRoZaTTmP20yPeVCmePsCn9/LRSjTJe1ENhIO9iNkJA5vkftFTunyU9/jRMaCMTZFXWLaxYKXseeOhOH2PjNDQ16QP2WZSfs9ikE+eR0HnUTRH7qZihSfTpUElV7guV1MprlQBwEzLYT8PbCWsZryXSLN/ol91iHkWU8Gw09aTeaaZHpcVD6VifiUhd2KLQWgCGSt09BS4kRcwr+8Mm1JyKT8Av/NK0e/2FtszBR9ljAWKrrZJeL3k+Of9yKU/Si9oAnbP1RKJ+m7DacJVa50YNvUZeHaOAv8jGO3BkYRV0lG2jPQDdGKfDDMQdiHthnKzc/bjUVGnOoSiw1GTCoIG4c0y7HrpHTo55Su9EgQurpwUNtVwFRJaAAf8o9hOx+nu+b04JqTqFIPhb4lbbOZnjAWRIakNLrHlUzLK3rc0yzfni6lk5Dm79MpPYCDl34iPKUPcHjP+KUZYYRK1f2173JxDoQT5/uFbbVE+SRjsU6mdFoTC2WlvqEsRcdSXrR+KUtFNpW8f6bkBJXWfYRAzhX3ktAcPJj2jOa9qy7v0kkRlZNhLNq3c/3GAEyaZ9nKm6O5gch7jJA+JX6/j1IQWnRWPKBx9TiDBmboy5vuuax0Y0F803UhxdK4MJh4P3zWXM8htHfi7/OpZYruj9G7qfH3JVJZLRn7U3rlC8UrBSiH9e6m4u6iCHQbAJXc00sxJVGZ3YwVic6Z6AKA5jL6nYlDE0Oqjf1R1lopb4f4fYhKAfBtFKfQt8sex+G5YVM9JpfXm6jcvMZKaAOMhtbK3Yr/9wf4f8SxVpKQp3WHX8kJjcyUDmZcOLAf5PDcDMJUJBS9HbVEUtoghG5TB/UVBd/aI6SDGdeWMZX9NSpwHVqSLyPfaaWs0RO0Tlc/1urqJuOex7b8FDalAHTyKh7QmHCiW3gdqzymgonugZmWlqvjr6dZNZy1DaRPezXkXoX9v0PHtfdAxdjDpQMaFw5u5jgmiVwtVc63laL1KrxwR8UPc7HfkNLyCPu+FtJWqhcqoTtMOqhxoUX5MIfnpp+mIug9g4gXH/1Iwrb9+wYJWokZ/8NZvnsVYuNCq/ww8q7JeoiudKFkGhkTDpqi+z0cnpt+myqCbhWg5aI11uUyWTDQVZylg8rYxB70YoAgbCxDa3YcfWnoNAA/96P95jClV7JnsTQFc6SOD09jUKaKKJv6nzdvD0jletP5xzjKDJDxDr6W8A0ufFk9aFPFoZdDYR9ppZjroXOhY8pjK17JycqWptkFCBUe02w3lTLLgGFSB6vF1DH0txtqqiEGFd/95UXGfoTDc6OmGmJwZXeIWOFxGfdRDs+NmmqIQcXTArJypU+p8JWUmmqIyWUqWkmlIGqqIcbfTJQqPC7jTuXw3Kiphhj/QFeq8LjUVEoR8s00Lr5upppqiMH50phY4THBHK2Hs3lRUw0xqNxaR2UnFBh7OofnRk01xFTMRNcXY9NEUA7PjZpqiMnztnWYw69XXgQ11RCTtlJxXOj+zuDw3KiphphKrV4VKzwmdH9ncnhu1FRDjF8CSKrwmNRUSiHS18GcErq/wguBqamGmKzlqSPBHGdzeG7UVEMMveZMrPA22U9weG7UVENMYCbkFyDFZexqDs+NmmqICdLeqhVXD+s0qamGGHotrFjhbbKf4vDcqKmGmKBa31+s8DY11FRKfoKMl0a21MOb09VUQ0y51tgXFfxiR4XHFVtXMy9qqiGGlh/EOVO2qUJ3HofnRk01xKBiF6ElylzwAl3k+RyeGzXVENM0VdoLgpqCqfz7XIqgphpiaEkddH+pL3wkBV1erC2hphpi6A0MqNxNYqWzejEVQRMmpPJaMvbZaKF8ZRuCVpmDqZ4TK52FFudCDu8JeswjlRsJ3euD80bt6zhc2dqh15ChRclcVxymWsPh04LMKZUfCS3ifeWw8bscrmytlKqNv+xqqtB+hsP7AlrGy6XttGTcd+YsPXo+hytbGyVj34nu5xmxclloYT7L4X0FZXd7i+htux7y/p04XNlaYFOJr+yPhPSBvvsO3d6N0nYjwVxfHxnZvB2HK7OdUs29A5X6tFSZU7IXc3huCrcwi9wO2M4t8vZZxl3H0cpsplStvx0t0VNiJU6psKmaI0rtLUXNVTpwIkDLlPk621LYuIXDldkIKpDetP5LqfJaMu4SDs9N+zDl4uai9+zB7Pe07UdCNBGWw5XZRFCb2Afd3y+kSmvJ2Es5PDfy2Pfi5po75l6D7cvrpZOM/S6HKrOFoGr3DkKbbarQXcbhucmeUFHcXIGpvwH7+WO5PLd5t2XLduRQZaYph4290M1slCqqJWM/x+G5yTlLpxdzpa78N7dafwuHKTNJORzfC5X7c6mSWjLucg7PTT5TRcpvLt9iGfugXI7bXNSkygCg1/qjUn8mVdCU7Oc5PDeyqRqJv5Pqbq5upsJFx1oOVWaKctXtiZYo85VnqMQvcHhu0lsqC/Vurm6mIiH9UA5XZgJ+G9X/SpUTCd/+PpoqkkW5jexzOcFceUzVyzmg0mfQUv2PWDksmOoKDi0MDHCVVGZLBl2vcT8S01qaMle+lsrd4DeuzByopNOlyomES/kvcmjP9MtcFWPfqqbaSshqrVBJV3LYtOmLuUz2lDI11SyBxi9JFUQiI3BY3+hmLqQ/AnN8X0rrJjXVLKJk7KulSiKhkgu9nNufqOeY2ZzDXFfBJPdKaWlSU81CUJGPS5VFymuutqu/PpiLrlLzmktNNUtBxXxJqrBI3cwl3lKYprmCamP/0uiK3bFvd0jpkVDG1VycMtsojx39SlRQ5r2kNHNl3qfqYq5dljR2Rdz3OvL5vHYVh9EsnY9g++1jwYx9AnofhyizlUroDmurOEFJc3W/+QmlmItNdVdHPIsma3BoC7p/RWvCzzXjr+WPlK2BcmiPkCo5rshcuUwVKWGubqYi0QhRDle2BXKZK3T/LX2eKTZXHlNR1+d3Rtm2yGOunmTcJfiZaaogtLfzbijbIgMzV7buohaNd0HZVilsLnR3hc692qWmGiZymyt2gt6DudRUwwi/92ZDwgxTit1ziihgLjXVMLMgHJ8DA53C09t/Ehh7K1qp1aVw/E0c0kHFNN6VdQUZGHflTouP3IXDFaUQ2wWmcQYZkabnw0yPonv9SsXYwzldURRFURRFURRFURRFURRlQIyM/D97bFg18kq98wAAAABJRU5ErkJggg==;" vertex="1" parent="1">
          <mxGeometry x="1030" y="490" width="50" height="50" as="geometry" />
        </mxCell>
      </root>
    </mxGraphModel>
  </diagram>
</mxfile>
